<?xml version="1.0" encoding="UTF-8" standalone="no"?>
<!-- Created with Inkscape (http://www.inkscape.org/) -->

<svg
   width="144.40327mm"
   height="33.291763mm"
   viewBox="0 0 144.40327 33.291763"
   version="1.1"
   id="svg5"
   xml:space="preserve"
   inkscape:version="1.2.1 (9c6d41e410, 2022-07-14)"
   sodipodi:docname="whispers-logo.svg"
   xmlns:inkscape="http://www.inkscape.org/namespaces/inkscape"
   xmlns:sodipodi="http://sodipodi.sourceforge.net/DTD/sodipodi-0.dtd"
   xmlns="http://www.w3.org/2000/svg"
   xmlns:svg="http://www.w3.org/2000/svg"><sodipodi:namedview
     id="namedview7"
     pagecolor="#ffffff"
     bordercolor="#000000"
     borderopacity="0.25"
     inkscape:showpageshadow="2"
     inkscape:pageopacity="0.0"
     inkscape:pagecheckerboard="0"
     inkscape:deskcolor="#d1d1d1"
     inkscape:document-units="mm"
     showgrid="false"
     inkscape:zoom="1.4618695"
     inkscape:cx="319.79599"
     inkscape:cy="948.7851"
     inkscape:window-width="1920"
     inkscape:window-height="1186"
     inkscape:window-x="-11"
     inkscape:window-y="-11"
     inkscape:window-maximized="1"
     inkscape:current-layer="layer1" /><defs
     id="defs2"><filter
       inkscape:collect="always"
       style="color-interpolation-filters:sRGB"
       id="filter14626"
       x="-0.098066576"
       y="-0.33620831"
       width="1.1961331"
       height="1.6724164"><feGaussianBlur
         inkscape:collect="always"
         stdDeviation="1.9217742"
         id="feGaussianBlur14628" /></filter><filter
       inkscape:collect="always"
       style="color-interpolation-filters:sRGB"
       id="filter3536"
       x="-0.062785"
       y="-0.28780267"
       width="1.1255701"
       height="1.5756054"><feGaussianBlur
         inkscape:collect="always"
         stdDeviation="3.8921618"
         id="feGaussianBlur3534" /></filter><filter
       inkscape:collect="always"
       style="color-interpolation-filters:sRGB"
       id="filter3540"
       x="-0.070705868"
       y="-0.19962288"
       width="1.1414117"
       height="1.3992459"><feGaussianBlur
         inkscape:collect="always"
         stdDeviation="2.476442"
         id="feGaussianBlur3538" /></filter><filter
       inkscape:collect="always"
       style="color-interpolation-filters:sRGB"
       id="filter3672"
       x="-0.069373757"
       y="-0.20938745"
       width="1.1387475"
       height="1.4187748"><feGaussianBlur
         inkscape:collect="always"
         stdDeviation="4.3006114"
         id="feGaussianBlur3670" /></filter><filter
       inkscape:collect="always"
       style="color-interpolation-filters:sRGB"
       id="filter3806"
       x="-0.068182632"
       y="-0.24329665"
       width="1.1363653"
       height="1.4865932"><feGaussianBlur
         inkscape:collect="always"
         stdDeviation="3.0712024"
         id="feGaussianBlur3804" /></filter><filter
       inkscape:collect="always"
       style="color-interpolation-filters:sRGB"
       id="filter3808"
       x="-0.06706617"
       y="-0.22992752"
       width="1.1341323"
       height="1.459855"><feGaussianBlur
         inkscape:collect="always"
         stdDeviation="4.1575601"
         id="feGaussianBlur3810" /></filter><filter
       inkscape:collect="always"
       style="color-interpolation-filters:sRGB"
       id="filter3814"
       x="-0.068176873"
       y="-0.24335968"
       width="1.1363537"
       height="1.4867194"><feGaussianBlur
         inkscape:collect="always"
         stdDeviation="2.3301738"
         id="feGaussianBlur3812" /></filter><clipPath
       clipPathUnits="userSpaceOnUse"
       id="clipPath4005"><text
         xml:space="preserve"
         style="font-size:59.6401px;opacity:0.503846;fill:#000000;fill-opacity:1;stroke-width:0.406636"
         x="60.411194"
         y="101.66952"
         id="text4009"
         transform="scale(0.63216433,1.5818672)"><tspan
           sodipodi:role="line"
           id="tspan4007"
           style="font-style:normal;font-variant:normal;font-weight:normal;font-stretch:normal;font-size:59.6401px;font-family:Forte;-inkscape-font-specification:Forte;fill:#000000;stroke-width:0.406636"
           x="60.411194"
           y="101.66952">Whispers</tspan></text></clipPath></defs><g
     inkscape:label="Layer 1"
     inkscape:groupmode="layer"
     id="layer1"
     transform="translate(-17.230191,-230.17094)"><g
       id="g3408"
       transform="matrix(1.0292638,0,0,0.41132648,-23.081438,190.20449)"
       clip-path="url(#clipPath4005)"><path
         id="path3346"
         style="fill:#f3a4a4;fill-opacity:1;stroke:#f3a4a4;stroke-width:0.236131;stroke-opacity:1"
         d="M 44.961597,92.829993 C 44.593775,92.624301 44.226945,92.423802 43.857271,92.209875 43.215305,91.838377 42.570732,91.454126 41.923022,91.057491 41.275313,90.660856 40.624859,90.251815 39.971204,89.829659 39.317549,89.407503 38.660582,88.972375 38.000781,88.524312 37.465748,88.160979 36.927154,87.783015 36.38796,87.402417 v 7.858952 c 0.145062,-0.03538 0.292449,-0.0669 0.437182,-0.102836 0.866787,-0.215247 1.727601,-0.440466 2.583305,-0.674378 0.855704,-0.233912 1.706426,-0.476795 2.552299,-0.727087 0.845874,-0.250293 1.687099,-0.508176 2.524394,-0.772563 0.159527,-0.05037 0.317214,-0.103677 0.476457,-0.154512 z" /><path
         style="fill:none;fill-opacity:1;stroke-width:0.264583"
         d="m 30.781193,150.98175 c 1.308402,-0.28262 2.720372,-0.36916 4.001556,-0.76953 0.328478,-0.10264 0.593804,-0.36282 0.923435,-0.46171 3.169174,-0.95076 1.121149,-0.28382 3.078121,-0.46172 1.546018,-0.14055 3.073871,-0.62923 4.617177,-0.76953 1.87974,-0.17088 3.80927,0.0857 5.694521,0 0.464082,-0.0211 0.921176,-0.13071 1.385155,-0.15391 1.687179,-0.0844 3.390847,0.0582 5.078897,0 2.312132,-0.0797 4.608607,-0.1539 6.925767,-0.1539 1.48776,0 2.979298,-0.106 4.463275,0 0.572116,0.0409 1.122899,0.24447 1.692965,0.30781 1.173838,0.13043 2.366,0.0235 3.539837,0.1539 0.570066,0.0634 1.123413,0.24001 1.692966,0.30782 16.139768,1.9214 -5.551274,-0.93347 8.926546,1.07734 3.987779,0.55386 8.060386,0.68624 12.004665,1.53906 0.586912,0.1269 1.108098,0.47961 1.692965,0.61562 1.62686,0.37834 3.300841,0.53364 4.924989,0.92344 0.94651,0.22716 1.83064,0.66947 2.77031,0.92343 6.28507,1.32318 -0.29529,-0.19594 5.54061,1.53906 4.17237,1.24044 2.11276,0.384 6.61796,1.38516 1.80984,0.40218 3.59154,0.92188 5.38671,1.38515 4.93496,1.27354 9.68558,2.82409 14.46716,4.61718 1.29256,0.48471 1.76714,0.95525 3.07812,1.23125 0.50452,0.10621 1.0318,0.0617 1.53906,0.1539 0.62434,0.11352 1.21812,0.37598 1.84687,0.46172 0.50832,0.0693 1.02645,-0.0205 1.53906,0 2.87228,0.11489 5.74966,0.17119 8.61874,0.30781 1.13201,0.0539 2.25391,0.25391 3.38593,0.30782 1.37759,0.0656 2.77652,0 4.15546,0 1.74232,0 3.51467,0.0539 5.2328,-0.30782 0.57239,-0.1205 1.11939,-0.347 1.69297,-0.46171 0.20122,-0.0403 0.4128,0.0312 0.61562,0 1.43822,-0.22127 2.86576,-0.55299 4.30937,-0.76953 0.40903,-0.0614 0.83221,-0.0451 1.23125,-0.15391 0.73578,-0.20067 1.42742,-0.53987 2.15468,-0.76953 0.74769,-0.23611 1.57527,-0.32229 2.30859,-0.61562 1.05364,-0.42146 1.05727,-0.64034 2.15468,-1.23125 0.77755,-0.41868 1.73182,-0.19809 2.4625,-0.61562 0.18898,-0.10799 0.29176,-0.32575 0.46172,-0.46172 0.22413,-0.17931 0.52253,-0.18432 0.76953,-0.30781 0.62411,-0.31206 1.12132,-0.8311 1.69296,-1.23125 1.529,-1.0703 2.51274,0.0534 3.23203,-1.38516"
         id="path3348" /><g
         id="g3354"><path
           id="path3350"
           style="fill:#f3a4a4;fill-opacity:1;stroke:#f3a4a4;stroke-width:0.236131;stroke-opacity:1"
           d="m 137.6748,74.482792 c -0.80103,0.525045 -1.62499,1.068534 -2.41794,1.58595 -1.24095,0.809746 -2.47237,1.609765 -3.69486,2.398303 -1.22249,0.788538 -2.43601,1.565842 -3.64164,2.33009 -0.31227,0.197948 -0.61949,0.38724 -0.9307,0.583427 1.35535,0.240611 2.7106,0.481337 4.06539,0.72192 2.00644,0.356304 4.01227,0.707088 6.01669,1.037146 1.0022,0.165029 2.00398,0.324885 3.0055,0.47749 1.00152,0.152606 2.00272,0.297808 3.00343,0.434082 1.00072,0.136275 2.00107,0.263787 3.00085,0.379822 0.99979,0.116036 1.99901,0.220754 2.99775,0.312643 0.99874,0.09189 1.99708,0.170776 2.99465,0.234611 0.49879,0.03192 0.99756,0.06006 1.49603,0.08423 0.49848,0.02417 0.99686,0.04453 1.495,0.06046 0.49814,0.01593 0.99617,0.02741 1.49397,0.03462 0.4978,0.0072 0.99498,0.0098 1.49241,0.0078 0.49744,-0.002 0.99484,-0.0085 1.4919,-0.02015 0.49706,-0.0117 0.9942,-0.02824 1.49087,-0.05013 0.49667,-0.02189 0.99305,-0.04908 1.48931,-0.08165 0.49627,-0.03257 0.99244,-0.07047 1.48828,-0.114205 0.49585,-0.04373 0.99132,-0.09344 1.48674,-0.148829 0.49541,-0.05539 0.99073,-0.116439 1.48569,-0.183968 0.49496,-0.06753 0.98965,-0.141532 1.48415,-0.221692 0.4945,-0.08016 0.98858,-0.166653 1.4826,-0.259932 0.49401,-0.09328 0.98804,-0.193352 1.48156,-0.30024 0.49352,-0.106888 0.98649,-0.220597 1.4795,-0.341581 0.49301,-0.120984 0.98597,-0.248904 1.47846,-0.384473 0.49248,-0.135569 0.98445,-0.278788 1.47639,-0.429431 0.49195,-0.150643 0.98398,-0.309218 1.47537,-0.475423 0.49139,-0.166205 0.98247,-0.340193 1.47329,-0.522449 0.49082,-0.182256 0.981,-0.372747 1.47123,-0.571541 0.49023,-0.198795 0.98056,-0.405846 1.47019,-0.621668 0.48964,-0.215822 0.9786,-0.440005 1.46762,-0.673344 0.48901,-0.233338 0.97767,-0.475744 1.46606,-0.727087 0.15941,-0.08204 0.31865,-0.171286 0.478,-0.255282 v -4.299479 z" /><path
           id="path3352"
           style="fill:#f3a4a4;fill-opacity:1;stroke-width:0.236131"
           d="M 137.6748,74.482792 H 36.38796 v 12.919625 c 0.539194,0.380598 1.077788,0.758562 1.612821,1.121895 0.659801,0.448063 1.316768,0.883191 1.970423,1.305347 0.653655,0.422156 1.304109,0.831197 1.951818,1.227832 0.64771,0.396635 1.292283,0.780886 1.934249,1.152384 0.369674,0.213927 0.736504,0.414426 1.104326,0.620118 0.676559,-0.215979 1.352328,-0.433234 2.024166,-0.656808 0.829968,-0.276196 1.656574,-0.557639 2.480468,-0.843359 0.823894,-0.285721 1.64486,-0.575722 2.463933,-0.868681 0.819072,-0.292959 1.636027,-0.588856 2.45153,-0.886768 1.631004,-0.595823 3.256601,-1.199518 4.880839,-1.80144 1.624237,-0.601922 3.24715,-1.202402 4.874637,-1.792139 0.813744,-0.294868 1.628895,-0.587004 2.445329,-0.875398 0.816435,-0.288394 1.634253,-0.573027 2.454631,-0.852662 0.820377,-0.279634 1.643011,-0.5541 2.468583,-0.822688 0.825572,-0.268589 1.654134,-0.531258 2.486153,-0.786516 0.832019,-0.255257 1.667622,-0.502949 2.507341,-0.74259 0.839718,-0.239641 1.683475,-0.471241 2.532145,-0.692981 0.84867,-0.22174 1.70221,-0.433551 2.561084,-0.635103 0.858873,-0.201553 1.723311,-0.392462 2.59364,-0.571542 0.870329,-0.179079 1.746776,-0.346423 2.629813,-0.500744 0.883038,-0.154322 1.772608,-0.295953 2.669605,-0.42323 0.896997,-0.127278 1.80132,-0.240532 2.713529,-0.338481 0.456105,-0.04897 0.913934,-0.09418 1.374077,-0.135392 0.460142,-0.04121 0.922659,-0.07845 1.386995,-0.111621 0.499592,-0.03569 0.999285,-0.06557 1.499134,-0.09043 0.499848,-0.02487 0.999559,-0.04437 1.49965,-0.05891 0.50009,-0.01454 1.000365,-0.02424 1.500683,-0.02894 0.500318,-0.0047 1.000668,-0.0046 1.501198,0 0.50053,0.0046 1.00151,0.01388 1.50224,0.02739 0.50072,0.01351 1.00132,0.03134 1.50223,0.05323 1.00182,0.04377 2.00408,0.103955 3.00654,0.178284 1.00245,0.07433 2.00511,0.163082 3.00808,0.264067 1.00297,0.100984 2.00627,0.214231 3.00964,0.337963 1.00336,0.123733 2.00702,0.257921 3.01066,0.400493 1.00365,0.142571 2.00739,0.293115 3.01119,0.450618 1.0038,0.157504 2.00735,0.321882 3.01119,0.49041 1.00383,0.168527 2.00795,0.341637 3.0117,0.517281 0.65199,0.11409 1.30352,0.231532 1.95543,0.347265 0.31121,-0.196187 0.61843,-0.385479 0.9307,-0.583427 1.20563,-0.764248 2.41915,-1.541552 3.64164,-2.33009 1.22249,-0.788538 2.45391,-1.588557 3.69486,-2.398303 0.79295,-0.517416 1.61691,-1.060905 2.41794,-1.58595 z" /></g><path
         id="path3356"
         style="mix-blend-mode:normal;fill:#000000;fill-opacity:1;stroke-width:0.236131;filter:url(#filter3814)"
         d="m 126.98966,81.380562 c -0.65191,-0.115733 -1.30344,-0.233175 -1.95543,-0.347265 -1.00375,-0.175644 -2.00787,-0.348754 -3.0117,-0.517281 -1.00384,-0.168528 -2.00739,-0.332906 -3.01119,-0.49041 -1.0038,-0.157503 -2.00754,-0.308047 -3.01119,-0.450618 -1.00364,-0.142572 -2.0073,-0.27676 -3.01066,-0.400493 -1.00337,-0.123732 -2.00667,-0.236979 -3.00964,-0.337963 -1.00297,-0.100985 -2.00563,-0.189738 -3.00808,-0.264067 -1.00246,-0.07433 -2.00472,-0.134517 -3.00654,-0.178284 -0.50091,-0.02188 -1.00151,-0.03972 -1.50223,-0.05323 -0.50073,-0.01351 -1.00171,-0.02274 -1.50224,-0.02739 -0.50053,-0.0046 -1.00088,-0.0047 -1.501198,0 -0.500318,0.0047 -1.000593,0.0144 -1.500683,0.02894 -0.500091,0.01454 -0.999802,0.03404 -1.49965,0.05891 -0.499849,0.02487 -0.999542,0.05475 -1.499134,0.09043 -0.464336,0.03317 -0.926853,0.07041 -1.386995,0.111621 -0.460143,0.04121 -0.917972,0.08642 -1.374077,0.135392 -0.912209,0.09795 -1.816532,0.211203 -2.713529,0.338481 -0.896997,0.127277 -1.786567,0.268908 -2.669605,0.42323 -0.883037,0.154321 -1.759484,0.321665 -2.629813,0.500744 -0.870329,0.17908 -1.734767,0.369989 -2.59364,0.571542 -0.858874,0.201552 -1.712414,0.413363 -2.561084,0.635103 -0.84867,0.22174 -1.692427,0.45334 -2.532145,0.692981 -0.839719,0.239641 -1.675322,0.487333 -2.507341,0.74259 -0.832019,0.255258 -1.660581,0.517927 -2.486153,0.786516 -0.825572,0.268588 -1.648206,0.543054 -2.468583,0.822688 -0.820378,0.279635 -1.638196,0.564268 -2.454631,0.852662 -0.816434,0.288394 -1.631585,0.58053 -2.445329,0.875398 -1.627487,0.589737 -3.2504,1.190217 -4.874637,1.792139 -1.624238,0.601922 -3.249835,1.205617 -4.880839,1.80144 -0.815503,0.297912 -1.632458,0.593809 -2.45153,0.886768 -0.819073,0.292959 -1.640039,0.58296 -2.463933,0.868681 -0.823894,0.28572 -1.6505,0.567163 -2.480468,0.843359 -0.671838,0.223574 -1.347607,0.440829 -2.024166,0.656808 0.270928,0.151507 0.543445,0.309745 0.813387,0.456819 0.636423,0.346748 1.270094,0.681691 1.901176,1.004073 0.631081,0.322383 1.259731,0.632291 1.885673,0.930693 0.625941,0.298402 1.249168,0.58509 1.87017,0.859896 0.621002,0.274806 1.239437,0.53802 1.8557,0.789616 0.616264,0.251596 1.230538,0.491599 1.842265,0.720369 0.611727,0.228771 1.220921,0.446343 1.828312,0.652673 0.607391,0.206331 1.212654,0.401219 1.81591,0.585494 0.603257,0.184276 1.204702,0.357777 1.804025,0.520382 0.599322,0.162606 1.196548,0.314465 1.792138,0.455786 0.595591,0.141321 1.189744,0.272315 1.781804,0.392745 0.592059,0.12042 1.182222,0.2303 1.770951,0.33021 0.588729,0.0999 1.176049,0.18945 1.761649,0.26923 0.585601,0.0798 1.169676,0.14978 1.752348,0.20981 0.582673,0.06 1.163617,0.11022 1.743563,0.15089 0.579946,0.0407 1.158908,0.0718 1.736328,0.0935 0.577421,0.0217 1.15348,0.0341 1.728577,0.0372 0.575096,0.003 1.148885,-0.003 1.721859,-0.0181 0.572973,-0.0151 1.145123,-0.0394 1.716174,-0.0724 0.571051,-0.0329 1.141159,-0.0747 1.71049,-0.12506 0.569331,-0.0503 1.138028,-0.10934 1.705839,-0.17673 0.567811,-0.0674 1.134695,-0.1428 1.701188,-0.22686 0.566493,-0.0841 1.132196,-0.17665 1.697571,-0.27698 0.565375,-0.10034 1.130528,-0.20882 1.694987,-0.32505 0.564459,-0.116226 1.128659,-0.239816 1.692403,-0.371552 0.563744,-0.131736 1.127106,-0.271204 1.690336,-0.418062 0.56323,-0.146859 1.125868,-0.301425 1.688786,-0.463021 0.562917,-0.161597 1.12598,-0.33048 1.688786,-0.506429 0.562806,-0.175949 1.125373,-0.358888 1.688269,-0.548804 0.562895,-0.189916 1.126116,-0.386646 1.689302,-0.590145 0.563187,-0.203498 1.126658,-0.413756 1.690336,-0.630452 0.563679,-0.216696 1.127515,-0.439702 1.691891,-0.66921 0.56437,-0.229508 1.1292,-0.465516 1.69447,-0.70745 0.56526,-0.241935 1.13121,-0.490164 1.69757,-0.744141 0.56636,-0.253977 1.13301,-0.513647 1.70067,-0.779281 0.56766,-0.265633 1.13617,-0.536999 1.70532,-0.813903 0.56916,-0.276905 1.13912,-0.559186 1.70997,-0.846977 0.57086,-0.287792 1.14239,-0.58124 1.71514,-0.879533 1.14551,-0.596585 2.29509,-1.213736 3.44941,-1.850016 1.15431,-0.63628 2.3136,-1.291845 3.47834,-1.964738 1.16473,-0.672894 2.33517,-1.363215 3.51193,-2.069641 1.17675,-0.706426 2.35978,-1.428882 3.55017,-2.16576 0.88207,-0.546019 1.77256,-1.107365 2.66288,-1.668632 z" /><path
         id="path3358"
         style="fill:#9873b9;fill-opacity:1;stroke-width:0.236131"
         d="m 126.98966,81.380562 c -0.65191,-0.115733 -1.30344,-0.233175 -1.95543,-0.347265 -1.00375,-0.175644 -2.00787,-0.348754 -3.0117,-0.517281 -1.00384,-0.168528 -2.00739,-0.332906 -3.01119,-0.49041 -1.0038,-0.157503 -2.00754,-0.308047 -3.01119,-0.450618 -1.00364,-0.142572 -2.0073,-0.27676 -3.01066,-0.400493 -1.00337,-0.123732 -2.00667,-0.236979 -3.00964,-0.337963 -1.00297,-0.100985 -2.00563,-0.189738 -3.00808,-0.264067 -1.00246,-0.07433 -2.00472,-0.134517 -3.00654,-0.178284 -0.50091,-0.02188 -1.00151,-0.03972 -1.50223,-0.05323 -0.50073,-0.01351 -1.00171,-0.02274 -1.50224,-0.02739 -0.50053,-0.0046 -1.00088,-0.0047 -1.501198,0 -0.500318,0.0047 -1.000593,0.0144 -1.500683,0.02894 -0.500091,0.01454 -0.999802,0.03404 -1.49965,0.05891 -0.499849,0.02487 -0.999542,0.05475 -1.499134,0.09043 -0.464336,0.03317 -0.926853,0.07041 -1.386995,0.111621 -0.460143,0.04121 -0.917972,0.08642 -1.374077,0.135392 -0.912209,0.09795 -1.816532,0.211203 -2.713529,0.338481 -0.896997,0.127277 -1.786567,0.268908 -2.669605,0.42323 -0.883037,0.154321 -1.759484,0.321665 -2.629813,0.500744 -0.870329,0.17908 -1.734767,0.369989 -2.59364,0.571542 -0.858874,0.201552 -1.712414,0.413363 -2.561084,0.635103 -0.84867,0.22174 -1.692427,0.45334 -2.532145,0.692981 -0.839719,0.239641 -1.675322,0.487333 -2.507341,0.74259 -0.832019,0.255258 -1.660581,0.517927 -2.486153,0.786516 -0.825572,0.268588 -1.648206,0.543054 -2.468583,0.822688 -0.820378,0.279635 -1.638196,0.564268 -2.454631,0.852662 -0.816434,0.288394 -1.631585,0.58053 -2.445329,0.875398 -1.627487,0.589737 -3.2504,1.190217 -4.874637,1.792139 -1.624238,0.601922 -3.249835,1.205617 -4.880839,1.80144 -0.815503,0.297912 -1.632458,0.593809 -2.45153,0.886768 -0.819073,0.292959 -1.640039,0.58296 -2.463933,0.868681 -0.823894,0.28572 -1.6505,0.567163 -2.480468,0.843359 -0.671838,0.223574 -1.347607,0.440829 -2.024166,0.656808 0.270928,0.151507 0.543445,0.309745 0.813387,0.456819 0.636423,0.346748 1.270094,0.681691 1.901176,1.004073 0.631081,0.322383 1.259731,0.632291 1.885673,0.930693 0.625941,0.298402 1.249168,0.58509 1.87017,0.859896 0.621002,0.274806 1.239437,0.53802 1.8557,0.789616 0.616264,0.251596 1.230538,0.491599 1.842265,0.720369 0.611727,0.228771 1.220921,0.446343 1.828312,0.652673 0.607391,0.206331 1.212654,0.401219 1.81591,0.585494 0.603257,0.184276 1.204702,0.357777 1.804025,0.520382 0.599322,0.162606 1.196548,0.314465 1.792138,0.455786 0.595591,0.141321 1.189744,0.272315 1.781804,0.392745 0.592059,0.12042 1.182222,0.2303 1.770951,0.33021 0.588729,0.0999 1.176049,0.18945 1.761649,0.26923 0.585601,0.0798 1.169676,0.14978 1.752348,0.20981 0.582673,0.06 1.163617,0.11022 1.743563,0.15089 0.579946,0.0407 1.158908,0.0718 1.736328,0.0935 0.577421,0.0217 1.15348,0.0341 1.728577,0.0372 0.575096,0.003 1.148885,-0.003 1.721859,-0.0181 0.572973,-0.0151 1.145123,-0.0394 1.716174,-0.0724 0.571051,-0.0329 1.141159,-0.0747 1.71049,-0.12506 0.569331,-0.0503 1.138028,-0.10934 1.705839,-0.17673 0.567811,-0.0674 1.134695,-0.1428 1.701188,-0.22686 0.566493,-0.0841 1.132196,-0.17665 1.697571,-0.27698 0.565375,-0.10034 1.130528,-0.20882 1.694987,-0.32505 0.564459,-0.116226 1.128659,-0.239816 1.692403,-0.371552 0.563744,-0.131736 1.127106,-0.271204 1.690336,-0.418062 0.56323,-0.146859 1.125868,-0.301425 1.688786,-0.463021 0.562917,-0.161597 1.12598,-0.33048 1.688786,-0.506429 0.562806,-0.175949 1.125373,-0.358888 1.688269,-0.548804 0.562895,-0.189916 1.126116,-0.386646 1.689302,-0.590145 0.563187,-0.203498 1.126658,-0.413756 1.690336,-0.630452 0.563679,-0.216696 1.127515,-0.439702 1.691891,-0.66921 0.56437,-0.229508 1.1292,-0.465516 1.69447,-0.70745 0.56526,-0.241935 1.13121,-0.490164 1.69757,-0.744141 0.56636,-0.253977 1.13301,-0.513647 1.70067,-0.779281 0.56766,-0.265633 1.13617,-0.536999 1.70532,-0.813903 0.56916,-0.276905 1.13912,-0.559186 1.70997,-0.846977 0.57086,-0.287792 1.14239,-0.58124 1.71514,-0.879533 1.14551,-0.596585 2.29509,-1.213736 3.44941,-1.850016 1.15431,-0.63628 2.3136,-1.291845 3.47834,-1.964738 1.16473,-0.672894 2.33517,-1.363215 3.51193,-2.069641 1.17675,-0.706426 2.35978,-1.428882 3.55017,-2.16576 0.88207,-0.546019 1.77256,-1.107365 2.66288,-1.668632 z" /><g
         id="g3362"
         style="fill:#000000;filter:url(#filter14626)"><path
           id="path3360"
           style="display:inline;fill:#000000;fill-opacity:1;stroke-width:0.236131;filter:url(#filter3808)"
           d="m 126.98966,81.380562 c -0.89032,0.561267 -1.78081,1.122613 -2.66288,1.668632 -1.19039,0.736878 -2.37342,1.459334 -3.55017,2.16576 -1.17676,0.706426 -2.3472,1.396747 -3.51193,2.069641 -1.16474,0.672893 -2.32403,1.328458 -3.47834,1.964738 -1.15432,0.63628 -2.3039,1.253431 -3.44941,1.850016 -0.57275,0.298293 -1.14428,0.591741 -1.71514,0.879533 -0.57085,0.287791 -1.14081,0.570072 -1.70997,0.846977 -0.56915,0.276904 -1.13766,0.54827 -1.70532,0.813903 -0.56766,0.265634 -1.13431,0.525304 -1.70067,0.779281 -0.56636,0.253977 -1.13231,0.502206 -1.69757,0.744141 -0.56527,0.241934 -1.1301,0.477942 -1.69447,0.70745 -0.564376,0.229508 -1.128212,0.452514 -1.691891,0.66921 -0.563678,0.216696 -1.127149,0.426954 -1.690336,0.630452 -0.563186,0.203499 -1.126407,0.400229 -1.689302,0.590145 -0.562896,0.189916 -1.125463,0.372855 -1.688269,0.548804 -0.562806,0.175949 -1.125869,0.344832 -1.688786,0.506429 -0.562918,0.161596 -1.125556,0.316162 -1.688786,0.463021 -0.56323,0.146858 -1.126592,0.286326 -1.690336,0.418062 -0.563744,0.131736 -1.127944,0.255326 -1.692403,0.371553 -0.564459,0.11623 -1.129612,0.22471 -1.694987,0.32505 -0.565375,0.10033 -1.131078,0.19292 -1.697571,0.27698 -0.566493,0.0841 -1.133377,0.15947 -1.701188,0.22686 -0.567811,0.0674 -1.136508,0.12639 -1.705839,0.17673 -0.569331,0.0503 -1.139439,0.0921 -1.71049,0.12506 -0.571051,0.0329 -1.143201,0.0573 -1.716174,0.0724 -0.572974,0.0151 -1.146763,0.0212 -1.721859,0.0181 -0.575097,-0.003 -1.151156,-0.0155 -1.728577,-0.0372 -0.57742,-0.0217 -1.156382,-0.0529 -1.736328,-0.0935 -0.579946,-0.0407 -1.16089,-0.0909 -1.743563,-0.15089 -0.582672,-0.06 -1.166747,-0.13003 -1.752348,-0.20981 -0.5856,-0.0798 -1.17292,-0.16933 -1.761649,-0.26923 -0.588729,-0.0999 -1.178892,-0.20979 -1.770951,-0.33021 -0.59206,-0.12043 -1.186213,-0.251425 -1.781804,-0.392746 -0.59559,-0.141321 -1.192816,-0.29318 -1.792138,-0.455786 -0.599323,-0.162605 -1.200768,-0.336106 -1.804025,-0.520382 -0.603256,-0.184275 -1.208519,-0.379163 -1.81591,-0.585494 -0.607391,-0.20633 -1.216585,-0.423902 -1.828312,-0.652673 -0.611727,-0.22877 -1.226001,-0.468773 -1.842265,-0.720369 -0.616263,-0.251596 -1.234698,-0.51481 -1.8557,-0.789616 -0.621002,-0.274806 -1.244229,-0.561494 -1.87017,-0.859896 -0.625942,-0.298402 -1.254592,-0.60831 -1.885673,-0.930693 -0.631082,-0.322382 -1.264753,-0.657325 -1.901176,-1.004073 -0.269942,-0.147074 -0.542459,-0.305312 -0.813387,-0.456819 -0.159243,0.05083 -0.31693,0.104139 -0.476457,0.154512 -0.837295,0.264387 -1.67852,0.52227 -2.524394,0.772563 -0.845873,0.250292 -1.696595,0.493175 -2.552299,0.727087 -0.855704,0.233912 -1.716518,0.459131 -2.583305,0.674378 -0.144733,0.03594 -0.29212,0.06745 -0.437182,0.102836 v 22.464781 c 0.321782,-0.0134 0.643312,-0.0293 0.965316,-0.0388 0.574711,-0.0169 1.149537,-0.028 1.724959,-0.0331 0.575422,-0.005 1.151402,-0.004 1.727543,0.002 0.576141,0.006 1.15274,0.0184 1.72961,0.0357 0.57687,0.0172 1.15407,0.0396 1.731677,0.0672 0.577608,0.0276 1.15539,0.0603 1.733745,0.0977 0.578354,0.0374 1.157218,0.0799 1.736328,0.12661 0.57911,0.0467 1.15852,0.098 1.738395,0.15348 0.579875,0.0555 1.16033,0.11505 1.740979,0.1788 1.161298,0.12748 2.324227,0.27103 3.488676,0.42839 1.164449,0.15737 2.330305,0.32854 3.497978,0.5116 1.167672,0.18306 2.336827,0.37783 3.507796,0.58239 1.170968,0.20457 2.343794,0.4189 3.518131,0.64079 1.174338,0.22189 2.350171,0.45124 3.52795,0.68626 1.177779,0.23503 2.357509,0.47588 3.538803,0.71986 0.466913,0.0964 0.937612,0.19666 1.405082,0.29404 0.978246,-0.41264 1.955495,-0.82052 2.935738,-1.24231 1.615912,-0.6953 3.235116,-1.40155 4.857068,-2.11408 1.621952,-0.71252 3.246916,-1.43158 4.875671,-2.15181 1.628755,-0.72022 3.261054,-1.44165 4.897376,-2.16007 1.636321,-0.71842 3.276495,-1.43385 4.921146,-2.14095 1.644652,-0.70711 3.293757,-1.40611 4.947503,-2.09238 0.82687,-0.34314 1.6548,-0.68292 2.48408,-1.01906 0.82929,-0.33615 1.66004,-0.66836 2.49184,-0.99632 0.8318,-0.32797 1.66467,-0.65189 2.49907,-0.97049 0.83441,-0.31859 1.67023,-0.63195 2.50735,-0.93999 0.83711,-0.30804 1.6757,-0.61063 2.5156,-0.90692 0.83991,-0.29629 1.68108,-0.58636 2.52388,-0.86972 0.8428,-0.28335 1.68739,-0.56017 2.53318,-0.8294 0.84579,-0.26924 1.69309,-0.53105 2.54196,-0.78497 0.84888,-0.25392 1.69921,-0.49949 2.55127,-0.73691 0.85205,-0.23741 1.70575,-0.46654 2.56108,-0.68626 0.85533,-0.21972 1.7122,-0.43013 2.57091,-0.63097 0.8587,-0.20084 1.71907,-0.39232 2.58123,-0.57309 0.86217,-0.18077 1.72636,-0.351049 2.59209,-0.510563 0.86573,-0.159513 1.73304,-0.307868 2.60243,-0.444934 0.86938,-0.137065 1.74065,-0.262775 2.61379,-0.376204 0.87314,-0.113429 1.74818,-0.214737 2.62516,-0.303341 0.87699,-0.0886 1.75613,-0.164271 2.63705,-0.226859 0.88093,-0.06259 1.76345,-0.111893 2.64842,-0.147278 0.88497,-0.03538 1.77224,-0.05709 2.66134,-0.06408 0.8891,-0.007 1.78041,6.66e-4 2.67374,0.02325 0.89332,0.02259 1.78848,0.06033 2.68614,0.113688 0.44882,0.02668 0.89831,0.05687 1.34823,0.09147 0.44993,0.03459 0.90031,0.07361 1.35134,0.116272 0.45104,0.04266 0.9028,0.08917 1.35496,0.140043 0.45216,0.05087 0.90476,0.105615 1.35806,0.164848 0.45329,0.05923 0.90723,0.122943 1.36167,0.190686 0.45444,0.06774 0.90969,0.139605 1.36529,0.216007 0.4556,0.0764 0.91162,0.157154 1.36839,0.242363 0.45677,0.08521 0.91406,0.175069 1.37201,0.269234 0.45796,0.09417 0.91648,0.192838 1.37563,0.296108 0.45915,0.10327 0.91889,0.21097 1.37924,0.3235 0.46036,0.11252 0.92129,0.22999 1.38286,0.35191 0.46158,0.12193 0.92368,0.24835 1.38648,0.37982 0.46281,0.13148 0.92657,0.26811 1.39062,0.40928 0.46404,0.14118 0.92841,0.2872 1.39371,0.43822 0.4653,0.15102 0.93128,0.30665 1.39785,0.46767 0.46656,0.16102 0.93413,0.327 1.40198,0.49816 0.46784,0.17116 0.93595,0.34771 1.40508,0.52917 0.46913,0.18145 0.9393,0.36827 1.40973,0.56017 0.47044,0.1919 0.94109,0.38869 1.41284,0.59118 0.11743,0.0504 0.23544,0.10396 0.35295,0.15503 0.14967,-0.0791 0.29762,-0.1622 0.44751,-0.24082 0.96615,-0.5067 1.93824,-0.9999 2.91507,-1.48156 V 78.782271 c -0.15935,0.084 -0.31859,0.173239 -0.478,0.255282 -0.48839,0.251343 -0.97705,0.493749 -1.46606,0.727087 -0.48902,0.233339 -0.97798,0.457522 -1.46762,0.673344 -0.48963,0.215822 -0.97996,0.422873 -1.47019,0.621668 -0.49023,0.198794 -0.98041,0.389285 -1.47123,0.571541 -0.49082,0.182256 -0.9819,0.356244 -1.47329,0.522449 -0.49139,0.166205 -0.98342,0.32478 -1.47537,0.475423 -0.49194,0.150643 -0.98391,0.293862 -1.47639,0.429431 -0.49249,0.135569 -0.98545,0.263489 -1.47846,0.384473 -0.49301,0.120984 -0.98598,0.234693 -1.4795,0.341581 -0.49352,0.106888 -0.98755,0.206961 -1.48156,0.30024 -0.49402,0.09328 -0.9881,0.179773 -1.4826,0.259932 -0.4945,0.08016 -0.98919,0.154164 -1.48415,0.221692 -0.49496,0.06753 -0.99028,0.128583 -1.48569,0.183968 -0.49542,0.05539 -0.99089,0.105097 -1.48674,0.148829 -0.49584,0.04373 -0.99201,0.08164 -1.48828,0.114205 -0.49626,0.03256 -0.99264,0.05976 -1.48931,0.08165 -0.49667,0.02189 -0.99381,0.03843 -1.49087,0.05013 -0.49706,0.0117 -0.99446,0.01816 -1.4919,0.02015 -0.49743,0.002 -0.99461,-5.39e-4 -1.49241,-0.0078 -0.4978,-0.0072 -0.99583,-0.01869 -1.49397,-0.03462 -0.49814,-0.01594 -0.99652,-0.03629 -1.495,-0.06046 -0.49847,-0.02417 -0.99724,-0.05231 -1.49603,-0.08423 -0.99757,-0.06383 -1.99591,-0.142723 -2.99465,-0.234611 -0.99874,-0.09189 -1.99796,-0.196607 -2.99775,-0.312643 -0.99978,-0.116035 -2.00013,-0.243547 -3.00085,-0.379822 -1.00071,-0.136274 -2.00191,-0.281476 -3.00343,-0.434082 -1.00152,-0.152605 -2.0033,-0.312461 -3.0055,-0.47749 -2.00442,-0.330058 -4.01025,-0.680842 -6.01669,-1.037146 -1.35479,-0.240583 -2.71004,-0.481309 -4.06539,-0.72192 z" /></g><g
         id="g3366"><path
           id="path3364"
           style="display:inline;fill:#714288;fill-opacity:1;stroke-width:0.236131"
           d="m 126.98966,81.380562 c -0.89032,0.561267 -1.78081,1.122613 -2.66288,1.668632 -1.19039,0.736878 -2.37342,1.459334 -3.55017,2.16576 -1.17676,0.706426 -2.3472,1.396747 -3.51193,2.069641 -1.16474,0.672893 -2.32403,1.328458 -3.47834,1.964738 -1.15432,0.63628 -2.3039,1.253431 -3.44941,1.850016 -0.57275,0.298293 -1.14428,0.591741 -1.71514,0.879533 -0.57085,0.287791 -1.14081,0.570072 -1.70997,0.846977 -0.56915,0.276904 -1.13766,0.54827 -1.70532,0.813903 -0.56766,0.265634 -1.13431,0.525304 -1.70067,0.779281 -0.56636,0.253977 -1.13231,0.502206 -1.69757,0.744141 -0.56527,0.241934 -1.1301,0.477942 -1.69447,0.70745 -0.564376,0.229508 -1.128212,0.452514 -1.691891,0.66921 -0.563678,0.216696 -1.127149,0.426954 -1.690336,0.630452 -0.563186,0.203499 -1.126407,0.400229 -1.689302,0.590145 -0.562896,0.189916 -1.125463,0.372855 -1.688269,0.548804 -0.562806,0.175949 -1.125869,0.344832 -1.688786,0.506429 -0.562918,0.161596 -1.125556,0.316162 -1.688786,0.463021 -0.56323,0.146858 -1.126592,0.286326 -1.690336,0.418062 -0.563744,0.131736 -1.127944,0.255326 -1.692403,0.371553 -0.564459,0.11623 -1.129612,0.22471 -1.694987,0.32505 -0.565375,0.10033 -1.131078,0.19292 -1.697571,0.27698 -0.566493,0.0841 -1.133377,0.15947 -1.701188,0.22686 -0.567811,0.0674 -1.136508,0.12639 -1.705839,0.17673 -0.569331,0.0503 -1.139439,0.0921 -1.71049,0.12506 -0.571051,0.0329 -1.143201,0.0573 -1.716174,0.0724 -0.572974,0.0151 -1.146763,0.0212 -1.721859,0.0181 -0.575097,-0.003 -1.151156,-0.0155 -1.728577,-0.0372 -0.57742,-0.0217 -1.156382,-0.0529 -1.736328,-0.0935 -0.579946,-0.0407 -1.16089,-0.0909 -1.743563,-0.15089 -0.582672,-0.06 -1.166747,-0.13003 -1.752348,-0.20981 -0.5856,-0.0798 -1.17292,-0.16933 -1.761649,-0.26923 -0.588729,-0.0999 -1.178892,-0.20979 -1.770951,-0.33021 -0.59206,-0.12043 -1.186213,-0.251425 -1.781804,-0.392746 -0.59559,-0.141321 -1.192816,-0.29318 -1.792138,-0.455786 -0.599323,-0.162605 -1.200768,-0.336106 -1.804025,-0.520382 -0.603256,-0.184275 -1.208519,-0.379163 -1.81591,-0.585494 -0.607391,-0.20633 -1.216585,-0.423902 -1.828312,-0.652673 -0.611727,-0.22877 -1.226001,-0.468773 -1.842265,-0.720369 -0.616263,-0.251596 -1.234698,-0.51481 -1.8557,-0.789616 -0.621002,-0.274806 -1.244229,-0.561494 -1.87017,-0.859896 -0.625942,-0.298402 -1.254592,-0.60831 -1.885673,-0.930693 -0.631082,-0.322382 -1.264753,-0.657325 -1.901176,-1.004073 -0.269942,-0.147074 -0.542459,-0.305312 -0.813387,-0.456819 -0.159243,0.05083 -0.31693,0.104139 -0.476457,0.154512 -0.837295,0.264387 -1.67852,0.52227 -2.524394,0.772563 -0.845873,0.250292 -1.696595,0.493175 -2.552299,0.727087 -0.855704,0.233912 -1.716518,0.459131 -2.583305,0.674378 -0.144733,0.03594 -0.29212,0.06745 -0.437182,0.102836 v 22.464781 c 0.321782,-0.0134 0.643312,-0.0293 0.965316,-0.0388 0.574711,-0.0169 1.149537,-0.028 1.724959,-0.0331 0.575422,-0.005 1.151402,-0.004 1.727543,0.002 0.576141,0.006 1.15274,0.0184 1.72961,0.0357 0.57687,0.0172 1.15407,0.0396 1.731677,0.0672 0.577608,0.0276 1.15539,0.0603 1.733745,0.0977 0.578354,0.0374 1.157218,0.0799 1.736328,0.12661 0.57911,0.0467 1.15852,0.098 1.738395,0.15348 0.579875,0.0555 1.16033,0.11505 1.740979,0.1788 1.161298,0.12748 2.324227,0.27103 3.488676,0.42839 1.164449,0.15737 2.330305,0.32854 3.497978,0.5116 1.167672,0.18306 2.336827,0.37783 3.507796,0.58239 1.170968,0.20457 2.343794,0.4189 3.518131,0.64079 1.174338,0.22189 2.350171,0.45124 3.52795,0.68626 1.177779,0.23503 2.357509,0.47588 3.538803,0.71986 0.466913,0.0964 0.937612,0.19666 1.405082,0.29404 0.978246,-0.41264 1.955495,-0.82052 2.935738,-1.24231 1.615912,-0.6953 3.235116,-1.40155 4.857068,-2.11408 1.621952,-0.71252 3.246916,-1.43158 4.875671,-2.15181 1.628755,-0.72022 3.261054,-1.44165 4.897376,-2.16007 1.636321,-0.71842 3.276495,-1.43385 4.921146,-2.14095 1.644652,-0.70711 3.293757,-1.40611 4.947503,-2.09238 0.82687,-0.34314 1.6548,-0.68292 2.48408,-1.01906 0.82929,-0.33615 1.66004,-0.66836 2.49184,-0.99632 0.8318,-0.32797 1.66467,-0.65189 2.49907,-0.97049 0.83441,-0.31859 1.67023,-0.63195 2.50735,-0.93999 0.83711,-0.30804 1.6757,-0.61063 2.5156,-0.90692 0.83991,-0.29629 1.68108,-0.58636 2.52388,-0.86972 0.8428,-0.28335 1.68739,-0.56017 2.53318,-0.8294 0.84579,-0.26924 1.69309,-0.53105 2.54196,-0.78497 0.84888,-0.25392 1.69921,-0.49949 2.55127,-0.73691 0.85205,-0.23741 1.70575,-0.46654 2.56108,-0.68626 0.85533,-0.21972 1.7122,-0.43013 2.57091,-0.63097 0.8587,-0.20084 1.71907,-0.39232 2.58123,-0.57309 0.86217,-0.18077 1.72636,-0.351049 2.59209,-0.510563 0.86573,-0.159513 1.73304,-0.307868 2.60243,-0.444934 0.86938,-0.137065 1.74065,-0.262775 2.61379,-0.376204 0.87314,-0.113429 1.74818,-0.214737 2.62516,-0.303341 0.87699,-0.0886 1.75613,-0.164271 2.63705,-0.226859 0.88093,-0.06259 1.76345,-0.111893 2.64842,-0.147278 0.88497,-0.03538 1.77224,-0.05709 2.66134,-0.06408 0.8891,-0.007 1.78041,6.66e-4 2.67374,0.02325 0.89332,0.02259 1.78848,0.06033 2.68614,0.113688 0.44882,0.02668 0.89831,0.05687 1.34823,0.09147 0.44993,0.03459 0.90031,0.07361 1.35134,0.116272 0.45104,0.04266 0.9028,0.08917 1.35496,0.140043 0.45216,0.05087 0.90476,0.105615 1.35806,0.164848 0.45329,0.05923 0.90723,0.122943 1.36167,0.190686 0.45444,0.06774 0.90969,0.139605 1.36529,0.216007 0.4556,0.0764 0.91162,0.157154 1.36839,0.242363 0.45677,0.08521 0.91406,0.175069 1.37201,0.269234 0.45796,0.09417 0.91648,0.192838 1.37563,0.296108 0.45915,0.10327 0.91889,0.21097 1.37924,0.3235 0.46036,0.11252 0.92129,0.22999 1.38286,0.35191 0.46158,0.12193 0.92368,0.24835 1.38648,0.37982 0.46281,0.13148 0.92657,0.26811 1.39062,0.40928 0.46404,0.14118 0.92841,0.2872 1.39371,0.43822 0.4653,0.15102 0.93128,0.30665 1.39785,0.46767 0.46656,0.16102 0.93413,0.327 1.40198,0.49816 0.46784,0.17116 0.93595,0.34771 1.40508,0.52917 0.46913,0.18145 0.9393,0.36827 1.40973,0.56017 0.47044,0.1919 0.94109,0.38869 1.41284,0.59118 0.11743,0.0504 0.23544,0.10396 0.35295,0.15503 0.14967,-0.0791 0.29762,-0.1622 0.44751,-0.24082 0.96615,-0.5067 1.93824,-0.9999 2.91507,-1.48156 V 78.782271 c -0.15935,0.084 -0.31859,0.173239 -0.478,0.255282 -0.48839,0.251343 -0.97705,0.493749 -1.46606,0.727087 -0.48902,0.233339 -0.97798,0.457522 -1.46762,0.673344 -0.48963,0.215822 -0.97996,0.422873 -1.47019,0.621668 -0.49023,0.198794 -0.98041,0.389285 -1.47123,0.571541 -0.49082,0.182256 -0.9819,0.356244 -1.47329,0.522449 -0.49139,0.166205 -0.98342,0.32478 -1.47537,0.475423 -0.49194,0.150643 -0.98391,0.293862 -1.47639,0.429431 -0.49249,0.135569 -0.98545,0.263489 -1.47846,0.384473 -0.49301,0.120984 -0.98598,0.234693 -1.4795,0.341581 -0.49352,0.106888 -0.98755,0.206961 -1.48156,0.30024 -0.49402,0.09328 -0.9881,0.179773 -1.4826,0.259932 -0.4945,0.08016 -0.98919,0.154164 -1.48415,0.221692 -0.49496,0.06753 -0.99028,0.128583 -1.48569,0.183968 -0.49542,0.05539 -0.99089,0.105097 -1.48674,0.148829 -0.49584,0.04373 -0.99201,0.08164 -1.48828,0.114205 -0.49626,0.03256 -0.99264,0.05976 -1.48931,0.08165 -0.49667,0.02189 -0.99381,0.03843 -1.49087,0.05013 -0.49706,0.0117 -0.99446,0.01816 -1.4919,0.02015 -0.49743,0.002 -0.99461,-5.39e-4 -1.49241,-0.0078 -0.4978,-0.0072 -0.99583,-0.01869 -1.49397,-0.03462 -0.49814,-0.01594 -0.99652,-0.03629 -1.495,-0.06046 -0.49847,-0.02417 -0.99724,-0.05231 -1.49603,-0.08423 -0.99757,-0.06383 -1.99591,-0.142723 -2.99465,-0.234611 -0.99874,-0.09189 -1.99796,-0.196607 -2.99775,-0.312643 -0.99978,-0.116035 -2.00013,-0.243547 -3.00085,-0.379822 -1.00071,-0.136274 -2.00191,-0.281476 -3.00343,-0.434082 -1.00152,-0.152605 -2.0033,-0.312461 -3.0055,-0.47749 -2.00442,-0.330058 -4.01025,-0.680842 -6.01669,-1.037146 -1.35479,-0.240583 -2.71004,-0.481309 -4.06539,-0.72192 z" /></g><path
         id="path3368"
         style="display:inline;mix-blend-mode:normal;fill:#000000;fill-opacity:1;stroke-width:0.236131;filter:url(#filter3806)"
         d="m 73.700928,122.17911 c 1.897935,0.39534 3.797258,0.79414 5.704561,1.19424 2.377081,0.49864 4.761411,0.99435 7.153569,1.47019 1.196078,0.23792 2.394139,0.47066 3.594095,0.6966 1.199957,0.22594 2.401557,0.44496 3.605465,0.65474 1.203908,0.20978 2.409936,0.41054 3.617867,0.59996 1.207932,0.18943 2.417725,0.36738 3.629755,0.53227 1.21203,0.16489 2.42647,0.31652 3.64267,0.45269 0.6081,0.0681 1.21657,0.13212 1.82573,0.19223 0.60915,0.0601 1.21861,0.11632 1.82883,0.16795 0.61022,0.0516 1.22115,0.099 1.83244,0.1416 0.6113,0.0426 1.22317,0.0806 1.83555,0.11368 0.61238,0.0331 1.22518,0.0612 1.83865,0.0842 0.61347,0.023 1.22769,0.0408 1.84226,0.0532 0.61457,0.0124 1.22969,0.0193 1.84537,0.0207 0.61568,0.001 1.23166,-0.003 1.84846,-0.0129 0.6168,-0.0103 1.23416,-0.0266 1.85209,-0.0491 0.61793,-0.0224 1.23663,-0.0512 1.8557,-0.0863 0.61906,-0.0351 1.23858,-0.0767 1.8588,-0.12505 0.62021,-0.0483 1.24105,-0.10333 1.86242,-0.16537 0.62137,-0.062 1.2435,-0.13094 1.86603,-0.20722 0.62254,-0.0763 1.24543,-0.1601 1.86914,-0.25115 0.62371,-0.091 1.24838,-0.18976 1.87327,-0.29611 0.62489,-0.10634 1.25029,-0.22045 1.87637,-0.34261 0.62609,-0.12216 1.2527,-0.25218 1.87999,-0.39067 0.62729,-0.1385 1.25511,-0.28545 1.88361,-0.4408 0.62849,-0.15536 1.2575,-0.31922 1.88722,-0.49196 0.62972,-0.17275 1.2599,-0.35402 1.89084,-0.54467 0.63095,-0.19065 1.26279,-0.39037 1.89498,-0.59945 0.63218,-0.20908 1.26516,-0.42774 1.89859,-0.65577 0.53864,-0.19392 1.07439,-0.39403 1.60817,-0.59997 0.53378,-0.20593 1.0655,-0.41741 1.59473,-0.63458 0.52923,-0.21718 1.0563,-0.44003 1.5813,-0.66766 0.52501,-0.22764 1.0478,-0.46031 1.5689,-0.69763 0.5211,-0.23733 1.04052,-0.47931 1.55804,-0.72554 0.51752,-0.24623 1.03345,-0.4965 1.54771,-0.75086 1.02852,-0.50873 2.05063,-1.03335 3.06803,-1.56993 1.0174,-0.53658 2.02973,-1.08509 3.03858,-1.64331 1.00884,-0.55822 2.014,-1.12601 3.01687,-1.69964 1.00287,-0.57363 2.00345,-1.1535 3.00291,-1.73633 0.99947,-0.58282 1.9981,-1.16862 2.99672,-1.75441 0.99862,-0.5858 1.99739,-1.17135 2.99775,-1.7539 1.00036,-0.58255 2.00239,-1.16222 3.00705,-1.73529 1.00466,-0.57308 2.01206,-1.13968 3.02359,-1.69706 0.86302,-0.47554 1.7306,-0.93999 2.60036,-1.39991 -0.11751,-0.0511 -0.23552,-0.10463 -0.35295,-0.15503 -0.47175,-0.20249 -0.9424,-0.39928 -1.41284,-0.59118 -0.47043,-0.1919 -0.9406,-0.37872 -1.40973,-0.56017 -0.46913,-0.18146 -0.93724,-0.35801 -1.40508,-0.52917 -0.46785,-0.17116 -0.93542,-0.33714 -1.40198,-0.49816 -0.46657,-0.16102 -0.93255,-0.31665 -1.39785,-0.46767 -0.4653,-0.15102 -0.92967,-0.29704 -1.39371,-0.43822 -0.46405,-0.14117 -0.92781,-0.2778 -1.39062,-0.40928 -0.4628,-0.13147 -0.9249,-0.25789 -1.38648,-0.37982 -0.46157,-0.12192 -0.9225,-0.23939 -1.38286,-0.35191 -0.46035,-0.11253 -0.92009,-0.22023 -1.37924,-0.3235 -0.45915,-0.10327 -0.91767,-0.20194 -1.37563,-0.296105 -0.45795,-0.09416 -0.91524,-0.184025 -1.37201,-0.269234 -0.45677,-0.08521 -0.91279,-0.165961 -1.36839,-0.242363 -0.4556,-0.0764 -0.91085,-0.148264 -1.36529,-0.216007 -0.45444,-0.06774 -0.90838,-0.131453 -1.36167,-0.190686 -0.4533,-0.05923 -0.9059,-0.113976 -1.35806,-0.164848 -0.45216,-0.05087 -0.90392,-0.09738 -1.35496,-0.140043 -0.45103,-0.04266 -0.90141,-0.08168 -1.35134,-0.116272 -0.44992,-0.03459 -0.89941,-0.06479 -1.34823,-0.09147 -0.89766,-0.05336 -1.79282,-0.0911 -2.68614,-0.113688 -0.89333,-0.02259 -1.78464,-0.03025 -2.67374,-0.02325 -0.8891,0.007 -1.77637,0.02869 -2.66134,0.06408 -0.88497,0.03539 -1.76749,0.08469 -2.64842,0.147278 -0.88092,0.06259 -1.76006,0.138256 -2.63705,0.226859 -0.87698,0.0886 -1.75202,0.189912 -2.62516,0.303341 -0.87314,0.113429 -1.74441,0.239139 -2.61379,0.376204 -0.86939,0.137066 -1.7367,0.285421 -2.60243,0.444934 -0.86573,0.159514 -1.72992,0.32979 -2.59209,0.51056 -0.86216,0.18077 -1.72253,0.37225 -2.58123,0.57309 -0.85871,0.20084 -1.71558,0.41125 -2.57091,0.63097 -0.85533,0.21972 -1.70903,0.44885 -2.56108,0.68626 -0.85206,0.23742 -1.70239,0.48299 -2.55127,0.73691 -0.84887,0.25392 -1.69617,0.51573 -2.54196,0.78497 -0.84579,0.26923 -1.69038,0.54605 -2.53318,0.8294 -0.8428,0.28336 -1.68397,0.57343 -2.52388,0.86972 -0.8399,0.29629 -1.67849,0.59888 -2.5156,0.90692 -0.83712,0.30804 -1.67294,0.6214 -2.50735,0.93999 -0.8344,0.3186 -1.66727,0.64252 -2.49907,0.97049 -0.8318,0.32796 -1.66255,0.66017 -2.49184,0.99632 -0.82928,0.33614 -1.65721,0.67592 -2.48408,1.01906 -1.653746,0.68627 -3.302851,1.38527 -4.947503,2.09238 -1.644651,0.7071 -3.284825,1.42253 -4.921146,2.14095 -1.636322,0.71842 -3.268621,1.43985 -4.897376,2.16007 -1.628755,0.72023 -3.253719,1.43929 -4.875671,2.15181 -1.621952,0.71253 -3.241156,1.41878 -4.857068,2.11408 -0.980243,0.42179 -1.957492,0.82967 -2.935738,1.24231 z" /><path
         id="path3370"
         style="fill:#caabd8;fill-opacity:1;stroke-width:0.236131"
         d="m 73.700928,122.17911 c 1.897935,0.39534 3.797258,0.79414 5.704561,1.19424 2.377081,0.49864 4.761411,0.99435 7.153569,1.47019 1.196078,0.23792 2.394139,0.47066 3.594095,0.6966 1.199957,0.22594 2.401557,0.44496 3.605465,0.65474 1.203908,0.20978 2.409936,0.41054 3.617867,0.59996 1.207932,0.18943 2.417725,0.36738 3.629755,0.53227 1.21203,0.16489 2.42647,0.31652 3.64267,0.45269 0.6081,0.0681 1.21657,0.13212 1.82573,0.19223 0.60915,0.0601 1.21861,0.11632 1.82883,0.16795 0.61022,0.0516 1.22115,0.099 1.83244,0.1416 0.6113,0.0426 1.22317,0.0806 1.83555,0.11368 0.61238,0.0331 1.22518,0.0612 1.83865,0.0842 0.61347,0.023 1.22769,0.0408 1.84226,0.0532 0.61457,0.0124 1.22969,0.0193 1.84537,0.0207 0.61568,0.001 1.23166,-0.003 1.84846,-0.0129 0.6168,-0.0103 1.23416,-0.0266 1.85209,-0.0491 0.61793,-0.0224 1.23663,-0.0512 1.8557,-0.0863 0.61906,-0.0351 1.23858,-0.0767 1.8588,-0.12505 0.62021,-0.0483 1.24105,-0.10333 1.86242,-0.16537 0.62137,-0.062 1.2435,-0.13094 1.86603,-0.20722 0.62254,-0.0763 1.24543,-0.1601 1.86914,-0.25115 0.62371,-0.091 1.24838,-0.18976 1.87327,-0.29611 0.62489,-0.10634 1.25029,-0.22045 1.87637,-0.34261 0.62609,-0.12216 1.2527,-0.25218 1.87999,-0.39067 0.62729,-0.1385 1.25511,-0.28545 1.88361,-0.4408 0.62849,-0.15536 1.2575,-0.31922 1.88722,-0.49196 0.62972,-0.17275 1.2599,-0.35402 1.89084,-0.54467 0.63095,-0.19065 1.26279,-0.39037 1.89498,-0.59945 0.63218,-0.20908 1.26516,-0.42774 1.89859,-0.65577 0.53864,-0.19392 1.07439,-0.39403 1.60817,-0.59997 0.53378,-0.20593 1.0655,-0.41741 1.59473,-0.63458 0.52923,-0.21718 1.0563,-0.44003 1.5813,-0.66766 0.52501,-0.22764 1.0478,-0.46031 1.5689,-0.69763 0.5211,-0.23733 1.04052,-0.47931 1.55804,-0.72554 0.51752,-0.24623 1.03345,-0.4965 1.54771,-0.75086 1.02852,-0.50873 2.05063,-1.03335 3.06803,-1.56993 1.0174,-0.53658 2.02973,-1.08509 3.03858,-1.64331 1.00884,-0.55822 2.014,-1.12601 3.01687,-1.69964 1.00287,-0.57363 2.00345,-1.1535 3.00291,-1.73633 0.99947,-0.58282 1.9981,-1.16862 2.99672,-1.75441 0.99862,-0.5858 1.99739,-1.17135 2.99775,-1.7539 1.00036,-0.58255 2.00239,-1.16222 3.00705,-1.73529 1.00466,-0.57308 2.01206,-1.13968 3.02359,-1.69706 0.86302,-0.47554 1.7306,-0.93999 2.60036,-1.39991 -0.11751,-0.0511 -0.23552,-0.10463 -0.35295,-0.15503 -0.47175,-0.20249 -0.9424,-0.39928 -1.41284,-0.59118 -0.47043,-0.1919 -0.9406,-0.37872 -1.40973,-0.56017 -0.46913,-0.18146 -0.93724,-0.35801 -1.40508,-0.52917 -0.46785,-0.17116 -0.93542,-0.33714 -1.40198,-0.49816 -0.46657,-0.16102 -0.93255,-0.31665 -1.39785,-0.46767 -0.4653,-0.15102 -0.92967,-0.29704 -1.39371,-0.43822 -0.46405,-0.14117 -0.92781,-0.2778 -1.39062,-0.40928 -0.4628,-0.13147 -0.9249,-0.25789 -1.38648,-0.37982 -0.46157,-0.12192 -0.9225,-0.23939 -1.38286,-0.35191 -0.46035,-0.11253 -0.92009,-0.22023 -1.37924,-0.3235 -0.45915,-0.10327 -0.91767,-0.20194 -1.37563,-0.296105 -0.45795,-0.09416 -0.91524,-0.184025 -1.37201,-0.269234 -0.45677,-0.08521 -0.91279,-0.165961 -1.36839,-0.242363 -0.4556,-0.0764 -0.91085,-0.148264 -1.36529,-0.216007 -0.45444,-0.06774 -0.90838,-0.131453 -1.36167,-0.190686 -0.4533,-0.05923 -0.9059,-0.113976 -1.35806,-0.164848 -0.45216,-0.05087 -0.90392,-0.09738 -1.35496,-0.140043 -0.45103,-0.04266 -0.90141,-0.08168 -1.35134,-0.116272 -0.44992,-0.03459 -0.89941,-0.06479 -1.34823,-0.09147 -0.89766,-0.05336 -1.79282,-0.0911 -2.68614,-0.113688 -0.89333,-0.02259 -1.78464,-0.03025 -2.67374,-0.02325 -0.8891,0.007 -1.77637,0.02869 -2.66134,0.06408 -0.88497,0.03539 -1.76749,0.08469 -2.64842,0.147278 -0.88092,0.06259 -1.76006,0.138256 -2.63705,0.226859 -0.87698,0.0886 -1.75202,0.189912 -2.62516,0.303341 -0.87314,0.113429 -1.74441,0.239139 -2.61379,0.376204 -0.86939,0.137066 -1.7367,0.285421 -2.60243,0.444934 -0.86573,0.159514 -1.72992,0.32979 -2.59209,0.51056 -0.86216,0.18077 -1.72253,0.37225 -2.58123,0.57309 -0.85871,0.20084 -1.71558,0.41125 -2.57091,0.63097 -0.85533,0.21972 -1.70903,0.44885 -2.56108,0.68626 -0.85206,0.23742 -1.70239,0.48299 -2.55127,0.73691 -0.84887,0.25392 -1.69617,0.51573 -2.54196,0.78497 -0.84579,0.26923 -1.69038,0.54605 -2.53318,0.8294 -0.8428,0.28336 -1.68397,0.57343 -2.52388,0.86972 -0.8399,0.29629 -1.67849,0.59888 -2.5156,0.90692 -0.83712,0.30804 -1.67294,0.6214 -2.50735,0.93999 -0.8344,0.3186 -1.66727,0.64252 -2.49907,0.97049 -0.8318,0.32796 -1.66255,0.66017 -2.49184,0.99632 -0.82928,0.33614 -1.65721,0.67592 -2.48408,1.01906 -1.653746,0.68627 -3.302851,1.38527 -4.947503,2.09238 -1.644651,0.7071 -3.284825,1.42253 -4.921146,2.14095 -1.636322,0.71842 -3.268621,1.43985 -4.897376,2.16007 -1.628755,0.72023 -3.253719,1.43929 -4.875671,2.15181 -1.621952,0.71253 -3.241156,1.41878 -4.857068,2.11408 -0.980243,0.42179 -1.957492,0.82967 -2.935738,1.24231 z" /><g
         id="g3378"
         style="display:inline;mix-blend-mode:normal;fill:#000000;filter:url(#filter3672)"><path
           id="path3372"
           style="fill:#000000;fill-opacity:1;stroke-width:0.236131"
           d="m 36.38796,133.29626 c 0.604919,-0.0672 1.210042,-0.13494 1.814876,-0.21653 0.797537,-0.10758 1.595146,-0.22713 2.392619,-0.35863 0.797473,-0.1315 1.594598,-0.27468 2.392102,-0.42892 0.797504,-0.15423 1.594989,-0.3198 2.392619,-0.49557 0.79763,-0.17578 1.595283,-0.36198 2.393135,-0.55811 0.797852,-0.19613 1.596,-0.40223 2.394169,-0.61753 0.79817,-0.2153 1.596621,-0.43955 2.395203,-0.67283 0.798582,-0.23327 1.597146,-0.47547 2.396236,-0.72554 0.79909,-0.25006 1.59861,-0.50845 2.398303,-0.77411 0.799694,-0.26566 1.599979,-0.53848 2.400371,-0.81855 0.800392,-0.28008 1.600734,-0.56712 2.40192,-0.86042 0.801187,-0.29329 1.602945,-0.59281 2.405022,-0.89813 0.802076,-0.30533 1.604543,-0.61659 2.407604,-0.93276 0.803062,-0.31617 1.606564,-0.63743 2.410706,-0.96325 0.804142,-0.32583 1.609005,-0.65635 2.414323,-0.99064 0.633594,-0.26301 1.269385,-0.53805 1.90376,-0.80563 -0.46747,-0.0974 -0.938169,-0.19761 -1.405082,-0.29404 -1.181294,-0.24398 -2.361024,-0.48483 -3.538803,-0.71986 -1.177779,-0.23502 -2.353612,-0.46437 -3.52795,-0.68626 -1.174337,-0.22189 -2.347163,-0.43622 -3.518131,-0.64079 -1.170969,-0.20456 -2.340124,-0.39933 -3.507796,-0.58239 -1.167673,-0.18306 -2.333529,-0.35423 -3.497978,-0.5116 -1.164449,-0.15736 -2.327378,-0.30091 -3.488676,-0.42839 -0.580649,-0.0637 -1.161104,-0.12332 -1.740979,-0.1788 -0.579875,-0.0555 -1.159285,-0.10678 -1.738395,-0.15348 -0.57911,-0.0467 -1.157974,-0.0892 -1.736328,-0.12661 -0.578355,-0.0374 -1.156137,-0.0701 -1.733745,-0.0977 -0.577607,-0.0276 -1.154807,-0.0499 -1.731677,-0.0672 -0.57687,-0.0172 -1.153469,-0.0293 -1.72961,-0.0357 -0.576141,-0.006 -1.152121,-0.007 -1.727543,-0.002 -0.575422,0.005 -1.150248,0.0161 -1.724959,0.0331 -0.322004,0.01 -0.643534,0.0254 -0.965316,0.0388 z" /><path
           id="path3374"
           style="fill:#000000;fill-opacity:1;stroke-width:0.236131"
           d="m 36.38796,145.7849 c 0.71223,-0.0817 1.424343,-0.16196 2.132686,-0.22738 0.901604,-0.0833 1.799979,-0.15336 2.695443,-0.21135 0.895463,-0.058 1.787856,-0.10355 2.677356,-0.13746 0.649109,-0.0247 1.294952,-0.0366 1.940967,-0.0491 -0.02067,-0.0151 -0.04134,-0.0293 -0.06201,-0.0444 -0.407508,-0.29924 -0.815393,-0.6047 -1.224215,-0.91674 -0.408822,-0.31203 -0.8187,-0.63101 -1.228865,-0.95601 -0.410165,-0.32501 -0.820946,-0.6561 -1.232483,-0.99426 -0.411537,-0.33815 -0.82368,-0.68309 -1.236617,-1.03456 -0.412938,-0.35147 -0.826385,-0.7099 -1.240751,-1.07487 -0.414367,-0.36496 -0.829577,-0.73654 -1.245402,-1.11517 -0.415826,-0.37864 -0.832224,-0.76404 -1.249537,-1.15652 -0.241718,-0.22734 -0.484345,-0.46199 -0.72657,-0.69402 z" /><path
           id="path3376"
           style="fill:#000000;fill-opacity:1;stroke-width:0.236131"
           d="m 185.16854,106.37645 c -0.2924,-0.14206 -0.58505,-0.28585 -0.87695,-0.42374 -0.47441,-0.22412 -0.94802,-0.44255 -1.4211,-0.65578 -0.35531,-0.16015 -0.70997,-0.31462 -1.06453,-0.4687 -0.86976,0.45992 -1.73734,0.92437 -2.60036,1.39991 -1.01153,0.55738 -2.01893,1.12398 -3.02359,1.69706 -1.00466,0.57307 -2.00669,1.15274 -3.00705,1.73529 -1.00036,0.58255 -1.99913,1.1681 -2.99775,1.7539 -0.99862,0.58579 -1.99725,1.17159 -2.99672,1.75441 -0.99946,0.58283 -2.00004,1.1627 -3.00291,1.73633 -1.00287,0.57363 -2.00803,1.14142 -3.01687,1.69964 -1.00885,0.55822 -2.02118,1.10673 -3.03858,1.64331 -1.0174,0.53658 -2.03951,1.0612 -3.06803,1.56993 -0.51426,0.25436 -1.03019,0.50463 -1.54771,0.75086 -0.51752,0.24623 -1.03694,0.48821 -1.55804,0.72554 -0.5211,0.23732 -1.04389,0.46999 -1.5689,0.69763 -0.525,0.22763 -1.05207,0.45048 -1.5813,0.66766 -0.52923,0.21717 -1.06095,0.42865 -1.59473,0.63458 -0.53378,0.20594 -1.06953,0.40605 -1.60817,0.59997 -0.63343,0.22803 -1.26641,0.44669 -1.89859,0.65577 -0.63219,0.20908 -1.26403,0.4088 -1.89498,0.59945 -0.63094,0.19065 -1.26112,0.37192 -1.89084,0.54467 -0.62972,0.17274 -1.25873,0.3366 -1.88722,0.49196 -0.6285,0.15535 -1.25632,0.3023 -1.88361,0.4408 -0.62729,0.13849 -1.2539,0.26851 -1.87999,0.39067 -0.62608,0.12216 -1.25148,0.23627 -1.87637,0.34261 -0.62489,0.10635 -1.24956,0.20506 -1.87327,0.29611 -0.62371,0.091 -1.2466,0.17486 -1.86914,0.25115 -0.62253,0.0763 -1.24466,0.14518 -1.86603,0.20722 -0.62137,0.062 -1.24221,0.11705 -1.86242,0.16537 -0.62022,0.0483 -1.23974,0.0899 -1.8588,0.12505 -0.61907,0.0351 -1.23777,0.0639 -1.8557,0.0863 -0.61793,0.0225 -1.23529,0.0388 -1.85209,0.0491 -0.6168,0.0103 -1.23278,0.0143 -1.84846,0.0129 -0.61568,-0.001 -1.2308,-0.008 -1.84537,-0.0207 -0.61457,-0.0124 -1.22879,-0.0302 -1.84226,-0.0532 -0.61347,-0.023 -1.22627,-0.0512 -1.83865,-0.0842 -0.61238,-0.0331 -1.22425,-0.0711 -1.83555,-0.11368 -0.61129,-0.0426 -1.22222,-0.09 -1.83244,-0.1416 -0.61022,-0.0516 -1.21968,-0.10783 -1.82883,-0.16795 -0.60916,-0.0601 -1.21763,-0.12415 -1.82573,-0.19223 -1.2162,-0.13617 -2.43064,-0.2878 -3.64267,-0.45269 -1.21203,-0.16489 -2.421823,-0.34284 -3.629755,-0.53227 -1.207931,-0.18942 -2.413959,-0.39018 -3.617867,-0.59996 -1.203908,-0.20978 -2.405508,-0.4288 -3.605465,-0.65474 -1.199956,-0.22594 -2.398017,-0.45868 -3.594095,-0.6966 -2.392158,-0.47584 -4.776488,-0.97155 -7.153569,-1.47019 -1.907303,-0.4001 -3.806626,-0.7989 -5.704561,-1.19424 -0.634375,0.26758 -1.270166,0.54262 -1.90376,0.80563 -0.805318,0.33429 -1.610181,0.66481 -2.414323,0.99064 -0.804142,0.32582 -1.607644,0.64708 -2.410706,0.96325 -0.803061,0.31617 -1.605528,0.62743 -2.407604,0.93276 -0.802077,0.30532 -1.603835,0.60484 -2.405022,0.89813 -0.801186,0.2933 -1.601528,0.58034 -2.40192,0.86042 -0.800392,0.28007 -1.600677,0.55289 -2.400371,0.81855 -0.799693,0.26566 -1.599213,0.52405 -2.398303,0.77411 -0.79909,0.25007 -1.597654,0.49227 -2.396236,0.72554 -0.798582,0.23328 -1.597033,0.45753 -2.395203,0.67283 -0.798169,0.2153 -1.596317,0.4214 -2.394169,0.61753 -0.797852,0.19613 -1.595505,0.38233 -2.393135,0.55811 -0.79763,0.17577 -1.595115,0.34134 -2.392619,0.49557 -0.797504,0.15424 -1.594629,0.29742 -2.392102,0.42892 -0.797473,0.1315 -1.595082,0.25105 -2.392619,0.35863 -0.604834,0.0816 -1.209957,0.1493 -1.814876,0.21653 v 3.87676 c 0.242225,0.23203 0.484852,0.46668 0.72657,0.69402 0.417313,0.39248 0.833711,0.77788 1.249537,1.15652 0.415825,0.37863 0.831035,0.75021 1.245402,1.11517 0.414366,0.36497 0.827813,0.7234 1.240751,1.07487 0.412937,0.35147 0.82508,0.69641 1.236617,1.03456 0.411537,0.33816 0.822318,0.66925 1.232483,0.99426 0.410165,0.325 0.820043,0.64398 1.228865,0.95601 0.408822,0.31204 0.816707,0.6175 1.224215,0.91674 0.02067,0.0152 0.04134,0.0293 0.06201,0.0444 0.239244,-0.005 0.479992,-0.0151 0.718819,-0.0181 0.883713,-0.011 1.764629,-0.0112 2.642733,-5.2e-4 0.878103,0.0107 1.753524,0.0324 2.626196,0.0636 0.872671,0.0312 1.742244,0.072 2.60966,0.12248 0.867416,0.0505 1.732335,0.11069 2.594673,0.17931 0.862338,0.0686 1.722251,0.14595 2.579688,0.23151 0.857437,0.0856 1.712505,0.1793 2.565218,0.28061 0.852713,0.10131 1.7031,0.21021 2.551265,0.32608 0.848166,0.11586 1.694034,0.2387 2.53783,0.36793 0.843796,0.12924 1.685824,0.26477 2.525427,0.40618 0.839603,0.14141 1.676921,0.2884 2.512508,0.4408 0.835588,0.1524 1.669391,0.31013 2.50114,0.47232 0.831748,0.16219 1.661683,0.32891 2.48977,0.49971 1.656174,0.3416 3.304912,0.69928 4.947502,1.06815 1.64259,0.36888 3.278838,0.74922 4.909261,1.13585 1.630423,0.38663 3.254965,0.77975 4.874638,1.17461 3.046702,0.74275 6.072967,1.4884 9.088852,2.21175 0.14865,-0.0419 0.29731,-0.0799 0.44597,-0.12247 0.75665,-0.21689 1.51356,-0.44263 2.27066,-0.67593 0.7571,-0.23331 1.51443,-0.47412 2.27221,-0.72244 0.75778,-0.24832 1.51559,-0.50391 2.27428,-0.76584 0.75869,-0.26194 1.51807,-0.53047 2.2779,-0.80461 0.75983,-0.27413 1.52031,-0.55376 2.28151,-0.8387 0.76121,-0.28494 1.52336,-0.57538 2.28617,-0.86972 1.52562,-0.58868 3.05442,-1.19445 4.58783,-1.81229 1.53342,-0.61785 3.07113,-1.24731 4.61419,-1.88309 1.54306,-0.63578 3.09169,-1.27782 4.64623,-1.9203 1.55455,-0.64247 3.11504,-1.28546 4.68292,-1.92339 1.56788,-0.63794 3.14327,-1.27074 4.72633,-1.89291 0.79152,-0.31108 1.58506,-0.61946 2.38073,-0.92449 0.79566,-0.30504 1.5931,-0.60676 2.39313,-0.90434 0.80004,-0.29758 1.60245,-0.59133 2.40709,-0.88005 0.80464,-0.28872 1.61157,-0.57265 2.42104,-0.85111 0.80947,-0.27846 1.6215,-0.55124 2.43603,-0.81804 0.81453,-0.26679 1.63171,-0.52762 2.45153,-0.78135 0.81982,-0.25372 1.6422,-0.50024 2.46755,-0.73949 0.82535,-0.23924 1.6535,-0.47116 2.4846,-0.69453 0.8311,-0.22336 1.66509,-0.43832 2.50218,-0.6444 0.83708,-0.20609 1.67747,-0.40327 2.52077,-0.59066 0.8433,-0.1874 1.68963,-0.36497 2.53938,-0.53227 0.84975,-0.1673 1.70259,-0.32445 2.55902,-0.47026 0.85642,-0.1458 1.71635,-0.28017 2.57969,-0.40307 0.86333,-0.12291 1.7304,-0.2342 2.60087,-0.3328 0.87047,-0.0986 1.74474,-0.18497 2.62258,-0.25786 0.87784,-0.0729 1.75936,-0.13251 2.6448,-0.17829 0.88544,-0.0458 1.77479,-0.0773 2.66805,-0.0946 0.89327,-0.0172 1.7905,-0.0199 2.69183,-0.007 0.43866,0.006 0.88128,0.0273 1.32188,0.0408 z" /></g><g
         id="g3390"><path
           id="path3380"
           style="fill:#f3a4a4;fill-opacity:1;stroke:#f3a4a4;stroke-width:0.54406;stroke-dasharray:none;stroke-opacity:1"
           d="m 36.38796,133.29626 c 0.604919,-0.0672 1.210042,-0.13494 1.814876,-0.21653 0.797537,-0.10758 1.595146,-0.22713 2.392619,-0.35863 0.797473,-0.1315 1.594598,-0.27468 2.392102,-0.42892 0.797504,-0.15423 1.594989,-0.3198 2.392619,-0.49557 0.79763,-0.17578 1.595283,-0.36198 2.393135,-0.55811 0.797852,-0.19613 1.596,-0.40223 2.394169,-0.61753 0.79817,-0.2153 1.596621,-0.43955 2.395203,-0.67283 0.798582,-0.23327 1.597146,-0.47547 2.396236,-0.72554 0.79909,-0.25006 1.59861,-0.50845 2.398303,-0.77411 0.799694,-0.26566 1.599979,-0.53848 2.400371,-0.81855 0.800392,-0.28008 1.600734,-0.56712 2.40192,-0.86042 0.801187,-0.29329 1.602945,-0.59281 2.405022,-0.89813 0.802076,-0.30533 1.604543,-0.61659 2.407604,-0.93276 0.803062,-0.31617 1.606564,-0.63743 2.410706,-0.96325 0.804142,-0.32583 1.609005,-0.65635 2.414323,-0.99064 0.633594,-0.26301 1.269385,-0.53805 1.90376,-0.80563 -0.46747,-0.0974 -0.938169,-0.19761 -1.405082,-0.29404 -1.181294,-0.24398 -2.361024,-0.48483 -3.538803,-0.71986 -1.177779,-0.23502 -2.353612,-0.46437 -3.52795,-0.68626 -1.174337,-0.22189 -2.347163,-0.43622 -3.518131,-0.64079 -1.170969,-0.20456 -2.340124,-0.39933 -3.507796,-0.58239 -1.167673,-0.18306 -2.333529,-0.35423 -3.497978,-0.5116 -1.164449,-0.15736 -2.327378,-0.30091 -3.488676,-0.42839 -0.580649,-0.0637 -1.161104,-0.12332 -1.740979,-0.1788 -0.579875,-0.0555 -1.159285,-0.10678 -1.738395,-0.15348 -0.57911,-0.0467 -1.157974,-0.0892 -1.736328,-0.12661 -0.578355,-0.0374 -1.156137,-0.0701 -1.733745,-0.0977 -0.577607,-0.0276 -1.154807,-0.0499 -1.731677,-0.0672 -0.57687,-0.0172 -1.153469,-0.0293 -1.72961,-0.0357 -0.576141,-0.006 -1.152121,-0.007 -1.727543,-0.002 -0.575422,0.005 -1.150248,0.0161 -1.724959,0.0331 -0.322004,0.01 -0.643534,0.0254 -0.965316,0.0388 z" /><path
           id="path3382"
           style="fill:#f3a4a4;fill-opacity:1;stroke:#f3a4a4;stroke-width:0.54406;stroke-dasharray:none;stroke-opacity:1"
           d="m 36.38796,145.7849 c 0.71223,-0.0817 1.424343,-0.16196 2.132686,-0.22738 0.901604,-0.0833 1.799979,-0.15336 2.695443,-0.21135 0.895463,-0.058 1.787856,-0.10355 2.677356,-0.13746 0.649109,-0.0247 1.294952,-0.0366 1.940967,-0.0491 -0.02067,-0.0151 -0.04134,-0.0293 -0.06201,-0.0444 -0.407508,-0.29924 -0.815393,-0.6047 -1.224215,-0.91674 -0.408822,-0.31203 -0.8187,-0.63101 -1.228865,-0.95601 -0.410165,-0.32501 -0.820946,-0.6561 -1.232483,-0.99426 -0.411537,-0.33815 -0.82368,-0.68309 -1.236617,-1.03456 -0.412938,-0.35147 -0.826385,-0.7099 -1.240751,-1.07487 -0.414367,-0.36496 -0.829577,-0.73654 -1.245402,-1.11517 -0.415826,-0.37864 -0.832224,-0.76404 -1.249537,-1.15652 -0.241718,-0.22734 -0.484345,-0.46199 -0.72657,-0.69402 z" /><g
           id="g3388"><path
             id="path3384"
             style="fill:#f3a4a4;fill-opacity:1;stroke:#f3a4a4;stroke-width:0.236131;stroke-opacity:1"
             d="m 185.16854,103.10585 c -0.97683,0.48166 -1.94892,0.97486 -2.91507,1.48156 -0.14989,0.0786 -0.29784,0.16167 -0.44751,0.24082 0.35456,0.15408 0.70922,0.30855 1.06453,0.4687 0.47308,0.21323 0.94669,0.43166 1.4211,0.65578 0.2919,0.13789 0.58455,0.28168 0.87695,0.42374 z" /><path
             id="path3386"
             style="fill:#f3a4a4;fill-opacity:1;stroke-width:0.236131"
             d="m 185.16854,106.37645 c -0.2924,-0.14206 -0.58505,-0.28585 -0.87695,-0.42374 -0.47441,-0.22412 -0.94802,-0.44255 -1.4211,-0.65578 -0.35531,-0.16015 -0.70997,-0.31462 -1.06453,-0.4687 -0.86976,0.45992 -1.73734,0.92437 -2.60036,1.39991 -1.01153,0.55738 -2.01893,1.12398 -3.02359,1.69706 -1.00466,0.57307 -2.00669,1.15274 -3.00705,1.73529 -1.00036,0.58255 -1.99913,1.1681 -2.99775,1.7539 -0.99862,0.58579 -1.99725,1.17159 -2.99672,1.75441 -0.99946,0.58283 -2.00004,1.1627 -3.00291,1.73633 -1.00287,0.57363 -2.00803,1.14142 -3.01687,1.69964 -1.00885,0.55822 -2.02118,1.10673 -3.03858,1.64331 -1.0174,0.53658 -2.03951,1.0612 -3.06803,1.56993 -0.51426,0.25436 -1.03019,0.50463 -1.54771,0.75086 -0.51752,0.24623 -1.03694,0.48821 -1.55804,0.72554 -0.5211,0.23732 -1.04389,0.46999 -1.5689,0.69763 -0.525,0.22763 -1.05207,0.45048 -1.5813,0.66766 -0.52923,0.21717 -1.06095,0.42865 -1.59473,0.63458 -0.53378,0.20594 -1.06953,0.40605 -1.60817,0.59997 -0.63343,0.22803 -1.26641,0.44669 -1.89859,0.65577 -0.63219,0.20908 -1.26403,0.4088 -1.89498,0.59945 -0.63094,0.19065 -1.26112,0.37192 -1.89084,0.54467 -0.62972,0.17274 -1.25873,0.3366 -1.88722,0.49196 -0.6285,0.15535 -1.25632,0.3023 -1.88361,0.4408 -0.62729,0.13849 -1.2539,0.26851 -1.87999,0.39067 -0.62608,0.12216 -1.25148,0.23627 -1.87637,0.34261 -0.62489,0.10635 -1.24956,0.20506 -1.87327,0.29611 -0.62371,0.091 -1.2466,0.17486 -1.86914,0.25115 -0.62253,0.0763 -1.24466,0.14518 -1.86603,0.20722 -0.62137,0.062 -1.24221,0.11705 -1.86242,0.16537 -0.62022,0.0483 -1.23974,0.0899 -1.8588,0.12505 -0.61907,0.0351 -1.23777,0.0639 -1.8557,0.0863 -0.61793,0.0225 -1.23529,0.0388 -1.85209,0.0491 -0.6168,0.0103 -1.23278,0.0143 -1.84846,0.0129 -0.61568,-0.001 -1.2308,-0.008 -1.84537,-0.0207 -0.61457,-0.0124 -1.22879,-0.0302 -1.84226,-0.0532 -0.61347,-0.023 -1.22627,-0.0512 -1.83865,-0.0842 -0.61238,-0.0331 -1.22425,-0.0711 -1.83555,-0.11368 -0.61129,-0.0426 -1.22222,-0.09 -1.83244,-0.1416 -0.61022,-0.0516 -1.21968,-0.10783 -1.82883,-0.16795 -0.60916,-0.0601 -1.21763,-0.12415 -1.82573,-0.19223 -1.2162,-0.13617 -2.43064,-0.2878 -3.64267,-0.45269 -1.21203,-0.16489 -2.421823,-0.34284 -3.629755,-0.53227 -1.207931,-0.18942 -2.413959,-0.39018 -3.617867,-0.59996 -1.203908,-0.20978 -2.405508,-0.4288 -3.605465,-0.65474 -1.199956,-0.22594 -2.398017,-0.45868 -3.594095,-0.6966 -2.392158,-0.47584 -4.776488,-0.97155 -7.153569,-1.47019 -1.907303,-0.4001 -3.806626,-0.7989 -5.704561,-1.19424 -0.634375,0.26758 -1.270166,0.54262 -1.90376,0.80563 -0.805318,0.33429 -1.610181,0.66481 -2.414323,0.99064 -0.804142,0.32582 -1.607644,0.64708 -2.410706,0.96325 -0.803061,0.31617 -1.605528,0.62743 -2.407604,0.93276 -0.802077,0.30532 -1.603835,0.60484 -2.405022,0.89813 -0.801186,0.2933 -1.601528,0.58034 -2.40192,0.86042 -0.800392,0.28007 -1.600677,0.55289 -2.400371,0.81855 -0.799693,0.26566 -1.599213,0.52405 -2.398303,0.77411 -0.79909,0.25007 -1.597654,0.49227 -2.396236,0.72554 -0.798582,0.23328 -1.597033,0.45753 -2.395203,0.67283 -0.798169,0.2153 -1.596317,0.4214 -2.394169,0.61753 -0.797852,0.19613 -1.595505,0.38233 -2.393135,0.55811 -0.79763,0.17577 -1.595115,0.34134 -2.392619,0.49557 -0.797504,0.15424 -1.594629,0.29742 -2.392102,0.42892 -0.797473,0.1315 -1.595082,0.25105 -2.392619,0.35863 -0.604834,0.0816 -1.209957,0.1493 -1.814876,0.21653 v 3.87676 c 0.242225,0.23203 0.484852,0.46668 0.72657,0.69402 0.417313,0.39248 0.833711,0.77788 1.249537,1.15652 0.415825,0.37863 0.831035,0.75021 1.245402,1.11517 0.414366,0.36497 0.827813,0.7234 1.240751,1.07487 0.412937,0.35147 0.82508,0.69641 1.236617,1.03456 0.411537,0.33816 0.822318,0.66925 1.232483,0.99426 0.410165,0.325 0.820043,0.64398 1.228865,0.95601 0.408822,0.31204 0.816707,0.6175 1.224215,0.91674 0.02067,0.0152 0.04134,0.0293 0.06201,0.0444 0.239244,-0.005 0.479992,-0.0151 0.718819,-0.0181 0.883713,-0.011 1.764629,-0.0112 2.642733,-5.2e-4 0.878103,0.0107 1.753524,0.0324 2.626196,0.0636 0.872671,0.0312 1.742244,0.072 2.60966,0.12248 0.867416,0.0505 1.732335,0.11069 2.594673,0.17931 0.862338,0.0686 1.722251,0.14595 2.579688,0.23151 0.857437,0.0856 1.712505,0.1793 2.565218,0.28061 0.852713,0.10131 1.7031,0.21021 2.551265,0.32608 0.848166,0.11586 1.694034,0.2387 2.53783,0.36793 0.843796,0.12924 1.685824,0.26477 2.525427,0.40618 0.839603,0.14141 1.676921,0.2884 2.512508,0.4408 0.835588,0.1524 1.669391,0.31013 2.50114,0.47232 0.831748,0.16219 1.661683,0.32891 2.48977,0.49971 1.656174,0.3416 3.304912,0.69928 4.947502,1.06815 1.64259,0.36888 3.278838,0.74922 4.909261,1.13585 1.630423,0.38663 3.254965,0.77975 4.874638,1.17461 3.046702,0.74275 6.072967,1.4884 9.088852,2.21175 0.14865,-0.0419 0.29731,-0.0799 0.44597,-0.12247 0.75665,-0.21689 1.51356,-0.44263 2.27066,-0.67593 0.7571,-0.23331 1.51443,-0.47412 2.27221,-0.72244 0.75778,-0.24832 1.51559,-0.50391 2.27428,-0.76584 0.75869,-0.26194 1.51807,-0.53047 2.2779,-0.80461 0.75983,-0.27413 1.52031,-0.55376 2.28151,-0.8387 0.76121,-0.28494 1.52336,-0.57538 2.28617,-0.86972 1.52562,-0.58868 3.05442,-1.19445 4.58783,-1.81229 1.53342,-0.61785 3.07113,-1.24731 4.61419,-1.88309 1.54306,-0.63578 3.09169,-1.27782 4.64623,-1.9203 1.55455,-0.64247 3.11504,-1.28546 4.68292,-1.92339 1.56788,-0.63794 3.14327,-1.27074 4.72633,-1.89291 0.79152,-0.31108 1.58506,-0.61946 2.38073,-0.92449 0.79566,-0.30504 1.5931,-0.60676 2.39313,-0.90434 0.80004,-0.29758 1.60245,-0.59133 2.40709,-0.88005 0.80464,-0.28872 1.61157,-0.57265 2.42104,-0.85111 0.80947,-0.27846 1.6215,-0.55124 2.43603,-0.81804 0.81453,-0.26679 1.63171,-0.52762 2.45153,-0.78135 0.81982,-0.25372 1.6422,-0.50024 2.46755,-0.73949 0.82535,-0.23924 1.6535,-0.47116 2.4846,-0.69453 0.8311,-0.22336 1.66509,-0.43832 2.50218,-0.6444 0.83708,-0.20609 1.67747,-0.40327 2.52077,-0.59066 0.8433,-0.1874 1.68963,-0.36497 2.53938,-0.53227 0.84975,-0.1673 1.70259,-0.32445 2.55902,-0.47026 0.85642,-0.1458 1.71635,-0.28017 2.57969,-0.40307 0.86333,-0.12291 1.7304,-0.2342 2.60087,-0.3328 0.87047,-0.0986 1.74474,-0.18497 2.62258,-0.25786 0.87784,-0.0729 1.75936,-0.13251 2.6448,-0.17829 0.88544,-0.0458 1.77479,-0.0773 2.66805,-0.0946 0.89327,-0.0172 1.7905,-0.0199 2.69183,-0.007 0.43866,0.006 0.88128,0.0273 1.32188,0.0408 z" /></g></g><path
         id="path3392"
         style="display:inline;mix-blend-mode:normal;fill:#000000;fill-opacity:1;stroke-width:0.236131;filter:url(#filter3540)"
         d="m 185.16854,129.82618 c -0.4406,-0.0135 -0.88322,-0.0347 -1.32188,-0.0408 -0.90133,-0.0127 -1.79856,-0.01 -2.69183,0.007 -0.89326,0.0173 -1.78261,0.0488 -2.66805,0.0946 -0.88544,0.0458 -1.76696,0.1054 -2.6448,0.17829 -0.87784,0.0729 -1.75211,0.15926 -2.62258,0.25786 -0.87047,0.0986 -1.73754,0.20989 -2.60087,0.3328 -0.86334,0.1229 -1.72327,0.25727 -2.57969,0.40307 -0.85643,0.14581 -1.70927,0.30296 -2.55902,0.47026 -0.84975,0.1673 -1.69608,0.34487 -2.53938,0.53227 -0.8433,0.18739 -1.68369,0.38457 -2.52077,0.59066 -0.83709,0.20608 -1.67108,0.42104 -2.50218,0.6444 -0.8311,0.22337 -1.65925,0.45529 -2.4846,0.69453 -0.82535,0.23925 -1.64773,0.48577 -2.46755,0.73949 -0.81982,0.25373 -1.637,0.51456 -2.45153,0.78135 -0.81453,0.2668 -1.62656,0.53958 -2.43603,0.81804 -0.80947,0.27846 -1.6164,0.56239 -2.42104,0.85111 -0.80464,0.28872 -1.60705,0.58247 -2.40709,0.88005 -0.80003,0.29758 -1.59747,0.5993 -2.39313,0.90434 -0.79567,0.30503 -1.58921,0.61341 -2.38073,0.92449 -1.58306,0.62217 -3.15845,1.25497 -4.72633,1.89291 -1.56788,0.63793 -3.12837,1.28092 -4.68292,1.92339 -1.55454,0.64248 -3.10317,1.28452 -4.64623,1.9203 -1.54306,0.63578 -3.08077,1.26524 -4.61419,1.88309 -1.53341,0.61784 -3.06221,1.22361 -4.58783,1.81229 -0.76281,0.29434 -1.52496,0.58478 -2.28617,0.86972 -0.7612,0.28494 -1.52168,0.56457 -2.28151,0.8387 -0.75983,0.27414 -1.51921,0.54267 -2.2779,0.80461 -0.75869,0.26193 -1.5165,0.51752 -2.27428,0.76584 -0.75778,0.24832 -1.51511,0.48913 -2.27221,0.72244 -0.7571,0.2333 -1.51401,0.45904 -2.27066,0.67593 -0.14866,0.0426 -0.29732,0.0805 -0.44597,0.12247 0.1907,0.0457 0.38405,0.0945 0.57464,0.14004 1.60242,0.38276 3.2012,0.75741 4.79713,1.11983 1.59592,0.36242 3.18923,0.71234 4.78007,1.0449 0.79541,0.16628 1.58993,0.32821 2.38435,0.48524 0.79441,0.15703 1.58869,0.3092 2.38228,0.45579 0.79358,0.14658 1.58677,0.28775 2.3797,0.42271 0.79293,0.13496 1.58569,0.26388 2.37815,0.38602 0.79246,0.12214 1.58444,0.23759 2.3766,0.34572 0.79216,0.10812 1.58455,0.20886 2.3766,0.30179 0.79204,0.0929 1.58398,0.17823 2.37608,0.25476 0.7921,0.0765 1.58426,0.14414 2.3766,0.20309 0.79233,0.059 1.58489,0.10917 2.37763,0.14935 0.79275,0.0402 1.58533,0.0707 2.37867,0.091 0.79333,0.0202 1.58715,0.0299 2.38125,0.0289 0.7941,-9.4e-4 1.58879,-0.0129 2.38383,-0.0362 0.79504,-0.0233 1.59026,-0.0581 2.38642,-0.1049 0.79616,-0.0468 1.59309,-0.10571 2.39055,-0.17725 0.79746,-0.0716 1.59575,-0.15576 2.39469,-0.25322 0.79893,-0.0975 1.59875,-0.20823 2.39933,-0.33279 0.80059,-0.12457 1.6021,-0.26262 2.40451,-0.41548 0.80241,-0.15286 1.60577,-0.32046 2.41019,-0.50281 0.80441,-0.18235 1.60979,-0.37971 2.41639,-0.59273 0.80659,-0.21303 1.61415,-0.44137 2.4231,-0.68626 0.80896,-0.2449 1.61937,-0.50599 2.43086,-0.78394 0.8115,-0.27795 1.62389,-0.57302 2.4381,-0.88521 0.4071,-0.1561 0.81485,-0.31674 1.22266,-0.48163 0.40782,-0.16488 0.81619,-0.33416 1.22473,-0.50798 0.40855,-0.17382 0.8175,-0.35195 1.2268,-0.53485 0.40931,-0.1829 0.81879,-0.37011 1.22887,-0.56224 0.41008,-0.19213 0.82056,-0.38915 1.23145,-0.59066 0.41088,-0.20151 0.82233,-0.40752 1.23403,-0.61857 0.41171,-0.21104 0.82355,-0.4273 1.2361,-0.64802 0.41255,-0.22072 0.82579,-0.4459 1.2392,-0.67644 0.41342,-0.23055 0.82697,-0.46642 1.24127,-0.70694 0.4143,-0.24052 0.82915,-0.48574 1.24437,-0.73639 0.41521,-0.25064 0.8308,-0.50647 1.24695,-0.76739 0.41615,-0.26092 0.83295,-0.52706 1.25005,-0.7984 0.41711,-0.27134 0.83456,-0.54801 1.25264,-0.82993 0.41808,-0.28191 0.83666,-0.56933 1.25574,-0.86196 0.41908,-0.29263 0.83873,-0.5905 1.25884,-0.894 0.4201,-0.3035 0.84079,-0.61256 1.26193,-0.92708 0.42115,-0.31451 0.84283,-0.63446 1.26504,-0.96014 0.0468,-0.0361 0.0938,-0.0739 0.14056,-0.11007 z" /><path
         id="path3394"
         style="display:inline;fill:#9873b9;fill-opacity:1;stroke-width:0.236131"
         d="m 185.16854,129.82618 c -0.4406,-0.0135 -0.88322,-0.0347 -1.32188,-0.0408 -0.90133,-0.0127 -1.79856,-0.01 -2.69183,0.007 -0.89326,0.0173 -1.78261,0.0488 -2.66805,0.0946 -0.88544,0.0458 -1.76696,0.1054 -2.6448,0.17829 -0.87784,0.0729 -1.75211,0.15926 -2.62258,0.25786 -0.87047,0.0986 -1.73754,0.20989 -2.60087,0.3328 -0.86334,0.1229 -1.72327,0.25727 -2.57969,0.40307 -0.85643,0.14581 -1.70927,0.30296 -2.55902,0.47026 -0.84975,0.1673 -1.69608,0.34487 -2.53938,0.53227 -0.8433,0.18739 -1.68369,0.38457 -2.52077,0.59066 -0.83709,0.20608 -1.67108,0.42104 -2.50218,0.6444 -0.8311,0.22337 -1.65925,0.45529 -2.4846,0.69453 -0.82535,0.23925 -1.64773,0.48577 -2.46755,0.73949 -0.81982,0.25373 -1.637,0.51456 -2.45153,0.78135 -0.81453,0.2668 -1.62656,0.53958 -2.43603,0.81804 -0.80947,0.27846 -1.6164,0.56239 -2.42104,0.85111 -0.80464,0.28872 -1.60705,0.58247 -2.40709,0.88005 -0.80003,0.29758 -1.59747,0.5993 -2.39313,0.90434 -0.79567,0.30503 -1.58921,0.61341 -2.38073,0.92449 -1.58306,0.62217 -3.15845,1.25497 -4.72633,1.89291 -1.56788,0.63793 -3.12837,1.28092 -4.68292,1.92339 -1.55454,0.64248 -3.10317,1.28452 -4.64623,1.9203 -1.54306,0.63578 -3.08077,1.26524 -4.61419,1.88309 -1.53341,0.61784 -3.06221,1.22361 -4.58783,1.81229 -0.76281,0.29434 -1.52496,0.58478 -2.28617,0.86972 -0.7612,0.28494 -1.52168,0.56457 -2.28151,0.8387 -0.75983,0.27414 -1.51921,0.54267 -2.2779,0.80461 -0.75869,0.26193 -1.5165,0.51752 -2.27428,0.76584 -0.75778,0.24832 -1.51511,0.48913 -2.27221,0.72244 -0.7571,0.2333 -1.51401,0.45904 -2.27066,0.67593 -0.14866,0.0426 -0.29732,0.0805 -0.44597,0.12247 0.1907,0.0457 0.38405,0.0945 0.57464,0.14004 1.60242,0.38276 3.2012,0.75741 4.79713,1.11983 1.59592,0.36242 3.18923,0.71234 4.78007,1.0449 0.79541,0.16628 1.58993,0.32821 2.38435,0.48524 0.79441,0.15703 1.58869,0.3092 2.38228,0.45579 0.79358,0.14658 1.58677,0.28775 2.3797,0.42271 0.79293,0.13496 1.58569,0.26388 2.37815,0.38602 0.79246,0.12214 1.58444,0.23759 2.3766,0.34572 0.79216,0.10812 1.58455,0.20886 2.3766,0.30179 0.79204,0.0929 1.58398,0.17823 2.37608,0.25476 0.7921,0.0765 1.58426,0.14414 2.3766,0.20309 0.79233,0.059 1.58489,0.10917 2.37763,0.14935 0.79275,0.0402 1.58533,0.0707 2.37867,0.091 0.79333,0.0202 1.58715,0.0299 2.38125,0.0289 0.7941,-9.4e-4 1.58879,-0.0129 2.38383,-0.0362 0.79504,-0.0233 1.59026,-0.0581 2.38642,-0.1049 0.79616,-0.0468 1.59309,-0.10571 2.39055,-0.17725 0.79746,-0.0716 1.59575,-0.15576 2.39469,-0.25322 0.79893,-0.0975 1.59875,-0.20823 2.39933,-0.33279 0.80059,-0.12457 1.6021,-0.26262 2.40451,-0.41548 0.80241,-0.15286 1.60577,-0.32046 2.41019,-0.50281 0.80441,-0.18235 1.60979,-0.37971 2.41639,-0.59273 0.80659,-0.21303 1.61415,-0.44137 2.4231,-0.68626 0.80896,-0.2449 1.61937,-0.50599 2.43086,-0.78394 0.8115,-0.27795 1.62389,-0.57302 2.4381,-0.88521 0.4071,-0.1561 0.81485,-0.31674 1.22266,-0.48163 0.40782,-0.16488 0.81619,-0.33416 1.22473,-0.50798 0.40855,-0.17382 0.8175,-0.35195 1.2268,-0.53485 0.40931,-0.1829 0.81879,-0.37011 1.22887,-0.56224 0.41008,-0.19213 0.82056,-0.38915 1.23145,-0.59066 0.41088,-0.20151 0.82233,-0.40752 1.23403,-0.61857 0.41171,-0.21104 0.82355,-0.4273 1.2361,-0.64802 0.41255,-0.22072 0.82579,-0.4459 1.2392,-0.67644 0.41342,-0.23055 0.82697,-0.46642 1.24127,-0.70694 0.4143,-0.24052 0.82915,-0.48574 1.24437,-0.73639 0.41521,-0.25064 0.8308,-0.50647 1.24695,-0.76739 0.41615,-0.26092 0.83295,-0.52706 1.25005,-0.7984 0.41711,-0.27134 0.83456,-0.54801 1.25264,-0.82993 0.41808,-0.28191 0.83666,-0.56933 1.25574,-0.86196 0.41908,-0.29263 0.83873,-0.5905 1.25884,-0.894 0.4201,-0.3035 0.84079,-0.61256 1.26193,-0.92708 0.42115,-0.31451 0.84283,-0.63446 1.26504,-0.96014 0.0468,-0.0361 0.0938,-0.0739 0.14056,-0.11007 z" /><g
         id="g3400"
         style="display:inline;mix-blend-mode:normal;fill:#000000;filter:url(#filter3536)"
         inkscape:label="g3400"><path
           id="path3396"
           style="fill:#000000;fill-opacity:1;stroke-width:0.236131"
           d="m 45.834412,145.15962 c 0.386772,0.28344 0.772971,0.56197 1.158585,0.83405 0.406223,0.28663 0.812014,0.56712 1.21698,0.8413 0.404966,0.27417 0.809108,0.54217 1.212846,0.80408 0.403738,0.26191 0.806689,0.51757 1.209229,0.7674 0.402539,0.24982 0.804758,0.49383 1.206128,0.73173 0.401369,0.23791 0.802282,0.46992 1.20251,0.69609 0.400228,0.22616 0.799778,0.44634 1.198893,0.66094 0.399116,0.21459 0.797761,0.42362 1.195793,0.62683 0.398032,0.20321 0.795198,0.40074 1.192175,0.59273 0.396977,0.19199 0.79364,0.37818 1.189592,0.55914 0.395951,0.18095 0.791536,0.35649 1.186491,0.52658 0.394954,0.17009 0.789404,0.33514 1.18339,0.49455 0.393986,0.1594 0.787243,0.31309 1.18029,0.46198 0.393046,0.14889 0.78557,0.29295 1.177706,0.4315 0.392135,0.13856 0.783868,0.27158 1.175122,0.39998 0.391254,0.12839 0.782137,0.25211 1.172538,0.37052 0.390401,0.11841 0.780378,0.23195 1.169954,0.34054 0.389577,0.1086 0.778589,0.21213 1.167371,0.3111 0.388781,0.099 0.777289,0.19316 1.165303,0.28267 0.388015,0.0895 0.77596,0.17454 1.163237,0.25476 0.387277,0.0802 0.774084,0.15575 1.160653,0.22686 0.386568,0.0711 0.772697,0.13781 1.158585,0.19999 0.385888,0.0622 0.771282,0.11969 1.156519,0.17312 0.385237,0.0534 0.770353,0.10243 1.154968,0.14727 0.384615,0.0448 0.76888,0.0855 1.152901,0.12196 0.384021,0.0364 0.767895,0.0689 1.151351,0.0971 0.383456,0.0282 0.766364,0.0522 1.149284,0.0724 0.38292,0.0202 0.765837,0.0363 1.14825,0.0486 0.764827,0.0246 1.528362,0.0333 2.291333,0.0274 0.762971,-0.006 1.525336,-0.0265 2.286682,-0.0615 0.761347,-0.035 1.52208,-0.0841 2.282032,-0.14676 0.759951,-0.0626 1.519109,-0.1385 2.277897,-0.22738 0.758788,-0.0889 1.516941,-0.19065 2.274796,-0.30437 0.757855,-0.11373 1.515577,-0.23956 2.27273,-0.37673 0.757152,-0.13716 1.513982,-0.28573 2.270662,-0.44493 0.756681,-0.1592 1.51319,-0.32918 2.269629,-0.50901 0.756439,-0.17984 1.512684,-0.36938 2.269112,-0.56844 0.607811,-0.15995 1.215721,-0.33023 1.823661,-0.50178 -3.015883,-0.72335 -6.042148,-1.469 -9.08885,-2.21175 -1.619673,-0.39486 -3.244215,-0.78798 -4.874638,-1.17461 -1.630423,-0.38663 -3.266671,-0.76697 -4.909261,-1.13585 -1.64259,-0.36887 -3.291328,-0.72655 -4.947502,-1.06815 -0.828087,-0.1708 -1.658022,-0.33752 -2.48977,-0.49971 -0.831749,-0.16219 -1.665552,-0.31992 -2.50114,-0.47232 -0.835587,-0.1524 -1.672905,-0.29939 -2.512508,-0.4408 -0.839603,-0.14141 -1.681631,-0.27694 -2.525427,-0.40618 -0.843796,-0.12923 -1.689664,-0.25207 -2.53783,-0.36793 -0.848165,-0.11587 -1.698552,-0.22477 -2.551265,-0.32608 -0.852713,-0.10131 -1.707781,-0.19504 -2.565218,-0.28061 -0.857437,-0.0856 -1.71735,-0.16288 -2.579688,-0.23151 -0.862338,-0.0686 -1.727257,-0.12881 -2.594673,-0.17931 -0.867416,-0.0505 -1.736989,-0.0913 -2.60966,-0.12248 -0.872672,-0.0312 -1.748093,-0.0529 -2.626196,-0.0636 -0.878104,-0.0107 -1.75902,-0.0105 -2.642733,5.2e-4 -0.238827,0.003 -0.479575,0.0135 -0.718819,0.0181 z" /><path
           id="path3398"
           style="fill:#000000;fill-opacity:1;stroke-width:0.236131"
           d="m 185.16854,142.56753 c -0.0468,0.0362 -0.0938,0.074 -0.14056,0.11007 -0.42221,0.32568 -0.84389,0.64563 -1.26504,0.96014 -0.42114,0.31452 -0.84183,0.62358 -1.26193,0.92708 -0.42011,0.3035 -0.83976,0.60137 -1.25884,0.894 -0.41908,0.29263 -0.83766,0.58005 -1.25574,0.86196 -0.41808,0.28192 -0.83553,0.55859 -1.25264,0.82993 -0.4171,0.27134 -0.8339,0.53748 -1.25005,0.7984 -0.41615,0.26092 -0.83174,0.51675 -1.24695,0.76739 -0.41522,0.25065 -0.83007,0.49587 -1.24437,0.73639 -0.4143,0.24052 -0.82785,0.47639 -1.24127,0.70694 -0.41341,0.23054 -0.82665,0.45572 -1.2392,0.67644 -0.41255,0.22072 -0.82439,0.43698 -1.2361,0.64802 -0.4117,0.21105 -0.82315,0.41706 -1.23403,0.61857 -0.41089,0.20151 -0.82137,0.39853 -1.23145,0.59066 -0.41008,0.19213 -0.81956,0.37934 -1.22887,0.56224 -0.4093,0.1829 -0.81825,0.36103 -1.2268,0.53485 -0.40854,0.17382 -0.81691,0.3431 -1.22473,0.50798 -0.40781,0.16489 -0.81556,0.32553 -1.22266,0.48163 -0.81421,0.31219 -1.6266,0.60726 -2.4381,0.88521 -0.81149,0.27795 -1.6219,0.53904 -2.43086,0.78394 -0.80895,0.24489 -1.61651,0.47323 -2.4231,0.68626 -0.8066,0.21302 -1.61198,0.41038 -2.41639,0.59273 -0.80442,0.18235 -1.60778,0.34995 -2.41019,0.50281 -0.80241,0.15286 -1.60392,0.29091 -2.40451,0.41548 -0.80058,0.12456 -1.6004,0.23533 -2.39933,0.33279 -0.79894,0.0975 -1.59723,0.18167 -2.39469,0.25322 -0.79746,0.0715 -1.59439,0.13043 -2.39055,0.17725 -0.79616,0.0468 -1.59138,0.0816 -2.38642,0.1049 -0.79504,0.0233 -1.58973,0.0352 -2.38383,0.0362 -0.7941,9.5e-4 -1.58792,-0.009 -2.38125,-0.0289 -0.79334,-0.0202 -1.58592,-0.0508 -2.37867,-0.091 -0.79274,-0.0402 -1.5853,-0.0904 -2.37763,-0.14935 -0.79234,-0.0589 -1.5845,-0.12656 -2.3766,-0.20309 -0.7921,-0.0765 -1.58404,-0.16184 -2.37608,-0.25476 -0.79205,-0.0929 -1.58444,-0.19367 -2.3766,-0.30179 -0.79216,-0.10813 -1.58414,-0.22358 -2.3766,-0.34572 -0.79246,-0.12214 -1.58522,-0.25106 -2.37815,-0.38602 -0.79293,-0.13496 -1.58612,-0.27613 -2.3797,-0.42271 -0.79359,-0.14659 -1.58787,-0.29876 -2.38228,-0.45579 -0.79442,-0.15703 -1.58894,-0.31896 -2.38435,-0.48524 -1.59084,-0.33256 -3.18415,-0.68248 -4.78007,-1.0449 -1.59593,-0.36242 -3.19471,-0.73707 -4.79713,-1.11983 -0.19059,-0.0455 -0.38394,-0.0943 -0.57464,-0.14004 -0.60794,0.17155 -1.21585,0.34183 -1.823661,0.50178 -0.756428,0.19906 -1.512673,0.3886 -2.269112,0.56844 -0.756439,0.17983 -1.512948,0.34981 -2.269629,0.50901 -0.75668,0.1592 -1.51351,0.30777 -2.270662,0.44493 -0.757153,0.13717 -1.514875,0.263 -2.27273,0.37673 -0.757855,0.11372 -1.516008,0.21549 -2.274796,0.30437 -0.758788,0.0889 -1.517946,0.16475 -2.277897,0.22738 -0.759952,0.0626 -1.520685,0.11179 -2.282032,0.14676 -0.761346,0.035 -1.523711,0.0556 -2.286682,0.0615 -0.762971,0.006 -1.526506,-0.003 -2.291333,-0.0274 -0.382413,-0.0123 -0.76533,-0.0284 -1.14825,-0.0486 -0.38292,-0.0202 -0.765828,-0.0441 -1.149284,-0.0724 -0.383456,-0.0282 -0.76733,-0.0607 -1.151351,-0.0971 -0.384021,-0.0364 -0.768286,-0.0771 -1.152901,-0.12196 -0.384615,-0.0448 -0.769731,-0.0939 -1.154968,-0.14727 -0.385237,-0.0534 -0.770631,-0.11094 -1.156519,-0.17312 -0.385888,-0.0622 -0.772017,-0.12887 -1.158585,-0.19999 -0.386569,-0.0711 -0.773376,-0.14664 -1.160653,-0.22686 -0.387277,-0.0802 -0.775222,-0.16526 -1.163237,-0.25476 -0.388014,-0.0895 -0.776522,-0.18371 -1.165303,-0.28267 -0.388782,-0.099 -0.777794,-0.2025 -1.167371,-0.3111 -0.389576,-0.10859 -0.779553,-0.22213 -1.169954,-0.34054 -0.390401,-0.11841 -0.781284,-0.24213 -1.172538,-0.37052 -0.391254,-0.1284 -0.782987,-0.26142 -1.175122,-0.39998 -0.392136,-0.13855 -0.78466,-0.28261 -1.177706,-0.4315 -0.393047,-0.14889 -0.786304,-0.30258 -1.18029,-0.46198 -0.393986,-0.15941 -0.788436,-0.32446 -1.18339,-0.49455 -0.394955,-0.17009 -0.79054,-0.34563 -1.186491,-0.52658 -0.395952,-0.18096 -0.792615,-0.36715 -1.189592,-0.55914 -0.396977,-0.19199 -0.794143,-0.38952 -1.192175,-0.59273 -0.398032,-0.20321 -0.796677,-0.41224 -1.195793,-0.62683 -0.399115,-0.2146 -0.798665,-0.43478 -1.198893,-0.66094 -0.400228,-0.22617 -0.801141,-0.45818 -1.20251,-0.69609 -0.40137,-0.2379 -0.803589,-0.48191 -1.206128,-0.73173 -0.40254,-0.24983 -0.805491,-0.50549 -1.209229,-0.7674 -0.403738,-0.26191 -0.80788,-0.52991 -1.212846,-0.80408 -0.404966,-0.27418 -0.810757,-0.55467 -1.21698,-0.8413 -0.385614,-0.27208 -0.771813,-0.55061 -1.158585,-0.83405 -0.646015,0.0125 -1.291858,0.0243 -1.940967,0.0491 -0.8895,0.0339 -1.781893,0.0795 -2.677356,0.13746 -0.895464,0.058 -1.793839,0.12809 -2.695443,0.21135 -0.708343,0.0654 -1.420456,0.14571 -2.132686,0.22738 v 29.23956 h 148.78058 z" /></g><g
         id="g3406"><path
           id="path3402"
           style="fill:#714288;fill-opacity:1;stroke:#714288;stroke-width:0.236131;stroke-opacity:1"
           d="m 45.834412,145.15962 c 0.386772,0.28344 0.772971,0.56197 1.158585,0.83405 0.406223,0.28663 0.812014,0.56712 1.21698,0.8413 0.404966,0.27417 0.809108,0.54217 1.212846,0.80408 0.403738,0.26191 0.806689,0.51757 1.209229,0.7674 0.402539,0.24982 0.804758,0.49383 1.206128,0.73173 0.401369,0.23791 0.802282,0.46992 1.20251,0.69609 0.400228,0.22616 0.799778,0.44634 1.198893,0.66094 0.399116,0.21459 0.797761,0.42362 1.195793,0.62683 0.398032,0.20321 0.795198,0.40074 1.192175,0.59273 0.396977,0.19199 0.79364,0.37818 1.189592,0.55914 0.395951,0.18095 0.791536,0.35649 1.186491,0.52658 0.394954,0.17009 0.789404,0.33514 1.18339,0.49455 0.393986,0.1594 0.787243,0.31309 1.18029,0.46198 0.393046,0.14889 0.78557,0.29295 1.177706,0.4315 0.392135,0.13856 0.783868,0.27158 1.175122,0.39998 0.391254,0.12839 0.782137,0.25211 1.172538,0.37052 0.390401,0.11841 0.780378,0.23195 1.169954,0.34054 0.389577,0.1086 0.778589,0.21213 1.167371,0.3111 0.388781,0.099 0.777289,0.19316 1.165303,0.28267 0.388015,0.0895 0.77596,0.17454 1.163237,0.25476 0.387277,0.0802 0.774084,0.15575 1.160653,0.22686 0.386568,0.0711 0.772697,0.13781 1.158585,0.19999 0.385888,0.0622 0.771282,0.11969 1.156519,0.17312 0.385237,0.0534 0.770353,0.10243 1.154968,0.14727 0.384615,0.0448 0.76888,0.0855 1.152901,0.12196 0.384021,0.0364 0.767895,0.0689 1.151351,0.0971 0.383456,0.0282 0.766364,0.0522 1.149284,0.0724 0.38292,0.0202 0.765837,0.0363 1.14825,0.0486 0.764827,0.0246 1.528362,0.0333 2.291333,0.0274 0.762971,-0.006 1.525336,-0.0265 2.286682,-0.0615 0.761347,-0.035 1.52208,-0.0841 2.282032,-0.14676 0.759951,-0.0626 1.519109,-0.1385 2.277897,-0.22738 0.758788,-0.0889 1.516941,-0.19065 2.274796,-0.30437 0.757855,-0.11373 1.515577,-0.23956 2.27273,-0.37673 0.757152,-0.13716 1.513982,-0.28573 2.270662,-0.44493 0.756681,-0.1592 1.51319,-0.32918 2.269629,-0.50901 0.756439,-0.17984 1.512684,-0.36938 2.269112,-0.56844 0.607811,-0.15995 1.215721,-0.33023 1.823661,-0.50178 -3.015883,-0.72335 -6.042148,-1.469 -9.08885,-2.21175 -1.619673,-0.39486 -3.244215,-0.78798 -4.874638,-1.17461 -1.630423,-0.38663 -3.266671,-0.76697 -4.909261,-1.13585 -1.64259,-0.36887 -3.291328,-0.72655 -4.947502,-1.06815 -0.828087,-0.1708 -1.658022,-0.33752 -2.48977,-0.49971 -0.831749,-0.16219 -1.665552,-0.31992 -2.50114,-0.47232 -0.835587,-0.1524 -1.672905,-0.29939 -2.512508,-0.4408 -0.839603,-0.14141 -1.681631,-0.27694 -2.525427,-0.40618 -0.843796,-0.12923 -1.689664,-0.25207 -2.53783,-0.36793 -0.848165,-0.11587 -1.698552,-0.22477 -2.551265,-0.32608 -0.852713,-0.10131 -1.707781,-0.19504 -2.565218,-0.28061 -0.857437,-0.0856 -1.71735,-0.16288 -2.579688,-0.23151 -0.862338,-0.0686 -1.727257,-0.12881 -2.594673,-0.17931 -0.867416,-0.0505 -1.736989,-0.0913 -2.60966,-0.12248 -0.872672,-0.0312 -1.748093,-0.0529 -2.626196,-0.0636 -0.878104,-0.0107 -1.75902,-0.0105 -2.642733,5.2e-4 -0.238827,0.003 -0.479575,0.0135 -0.718819,0.0181 z" /><path
           id="path3404"
           style="fill:#714288;fill-opacity:1;stroke-width:0.236131"
           d="m 185.16854,142.56753 c -0.0468,0.0362 -0.0938,0.074 -0.14056,0.11007 -0.42221,0.32568 -0.84389,0.64563 -1.26504,0.96014 -0.42114,0.31452 -0.84183,0.62358 -1.26193,0.92708 -0.42011,0.3035 -0.83976,0.60137 -1.25884,0.894 -0.41908,0.29263 -0.83766,0.58005 -1.25574,0.86196 -0.41808,0.28192 -0.83553,0.55859 -1.25264,0.82993 -0.4171,0.27134 -0.8339,0.53748 -1.25005,0.7984 -0.41615,0.26092 -0.83174,0.51675 -1.24695,0.76739 -0.41522,0.25065 -0.83007,0.49587 -1.24437,0.73639 -0.4143,0.24052 -0.82785,0.47639 -1.24127,0.70694 -0.41341,0.23054 -0.82665,0.45572 -1.2392,0.67644 -0.41255,0.22072 -0.82439,0.43698 -1.2361,0.64802 -0.4117,0.21105 -0.82315,0.41706 -1.23403,0.61857 -0.41089,0.20151 -0.82137,0.39853 -1.23145,0.59066 -0.41008,0.19213 -0.81956,0.37934 -1.22887,0.56224 -0.4093,0.1829 -0.81825,0.36103 -1.2268,0.53485 -0.40854,0.17382 -0.81691,0.3431 -1.22473,0.50798 -0.40781,0.16489 -0.81556,0.32553 -1.22266,0.48163 -0.81421,0.31219 -1.6266,0.60726 -2.4381,0.88521 -0.81149,0.27795 -1.6219,0.53904 -2.43086,0.78394 -0.80895,0.24489 -1.61651,0.47323 -2.4231,0.68626 -0.8066,0.21302 -1.61198,0.41038 -2.41639,0.59273 -0.80442,0.18235 -1.60778,0.34995 -2.41019,0.50281 -0.80241,0.15286 -1.60392,0.29091 -2.40451,0.41548 -0.80058,0.12456 -1.6004,0.23533 -2.39933,0.33279 -0.79894,0.0975 -1.59723,0.18167 -2.39469,0.25322 -0.79746,0.0715 -1.59439,0.13043 -2.39055,0.17725 -0.79616,0.0468 -1.59138,0.0816 -2.38642,0.1049 -0.79504,0.0233 -1.58973,0.0352 -2.38383,0.0362 -0.7941,9.5e-4 -1.58792,-0.009 -2.38125,-0.0289 -0.79334,-0.0202 -1.58592,-0.0508 -2.37867,-0.091 -0.79274,-0.0402 -1.5853,-0.0904 -2.37763,-0.14935 -0.79234,-0.0589 -1.5845,-0.12656 -2.3766,-0.20309 -0.7921,-0.0765 -1.58404,-0.16184 -2.37608,-0.25476 -0.79205,-0.0929 -1.58444,-0.19367 -2.3766,-0.30179 -0.79216,-0.10813 -1.58414,-0.22358 -2.3766,-0.34572 -0.79246,-0.12214 -1.58522,-0.25106 -2.37815,-0.38602 -0.79293,-0.13496 -1.58612,-0.27613 -2.3797,-0.42271 -0.79359,-0.14659 -1.58787,-0.29876 -2.38228,-0.45579 -0.79442,-0.15703 -1.58894,-0.31896 -2.38435,-0.48524 -1.59084,-0.33256 -3.18415,-0.68248 -4.78007,-1.0449 -1.59593,-0.36242 -3.19471,-0.73707 -4.79713,-1.11983 -0.19059,-0.0455 -0.38394,-0.0943 -0.57464,-0.14004 -0.60794,0.17155 -1.21585,0.34183 -1.823661,0.50178 -0.756428,0.19906 -1.512673,0.3886 -2.269112,0.56844 -0.756439,0.17983 -1.512948,0.34981 -2.269629,0.50901 -0.75668,0.1592 -1.51351,0.30777 -2.270662,0.44493 -0.757153,0.13717 -1.514875,0.263 -2.27273,0.37673 -0.757855,0.11372 -1.516008,0.21549 -2.274796,0.30437 -0.758788,0.0889 -1.517946,0.16475 -2.277897,0.22738 -0.759952,0.0626 -1.520685,0.11179 -2.282032,0.14676 -0.761346,0.035 -1.523711,0.0556 -2.286682,0.0615 -0.762971,0.006 -1.526506,-0.003 -2.291333,-0.0274 -0.382413,-0.0123 -0.76533,-0.0284 -1.14825,-0.0486 -0.38292,-0.0202 -0.765828,-0.0441 -1.149284,-0.0724 -0.383456,-0.0282 -0.76733,-0.0607 -1.151351,-0.0971 -0.384021,-0.0364 -0.768286,-0.0771 -1.152901,-0.12196 -0.384615,-0.0448 -0.769731,-0.0939 -1.154968,-0.14727 -0.385237,-0.0534 -0.770631,-0.11094 -1.156519,-0.17312 -0.385888,-0.0622 -0.772017,-0.12887 -1.158585,-0.19999 -0.386569,-0.0711 -0.773376,-0.14664 -1.160653,-0.22686 -0.387277,-0.0802 -0.775222,-0.16526 -1.163237,-0.25476 -0.388014,-0.0895 -0.776522,-0.18371 -1.165303,-0.28267 -0.388782,-0.099 -0.777794,-0.2025 -1.167371,-0.3111 -0.389576,-0.10859 -0.779553,-0.22213 -1.169954,-0.34054 -0.390401,-0.11841 -0.781284,-0.24213 -1.172538,-0.37052 -0.391254,-0.1284 -0.782987,-0.26142 -1.175122,-0.39998 -0.392136,-0.13855 -0.78466,-0.28261 -1.177706,-0.4315 -0.393047,-0.14889 -0.786304,-0.30258 -1.18029,-0.46198 -0.393986,-0.15941 -0.788436,-0.32446 -1.18339,-0.49455 -0.394955,-0.17009 -0.79054,-0.34563 -1.186491,-0.52658 -0.395952,-0.18096 -0.792615,-0.36715 -1.189592,-0.55914 -0.396977,-0.19199 -0.794143,-0.38952 -1.192175,-0.59273 -0.398032,-0.20321 -0.796677,-0.41224 -1.195793,-0.62683 -0.399115,-0.2146 -0.798665,-0.43478 -1.198893,-0.66094 -0.400228,-0.22617 -0.801141,-0.45818 -1.20251,-0.69609 -0.40137,-0.2379 -0.803589,-0.48191 -1.206128,-0.73173 -0.40254,-0.24983 -0.805491,-0.50549 -1.209229,-0.7674 -0.403738,-0.26191 -0.80788,-0.52991 -1.212846,-0.80408 -0.404966,-0.27418 -0.810757,-0.55467 -1.21698,-0.8413 -0.385614,-0.27208 -0.771813,-0.55061 -1.158585,-0.83405 -0.646015,0.0125 -1.291858,0.0243 -1.940967,0.0491 -0.8895,0.0339 -1.781893,0.0795 -2.677356,0.13746 -0.895464,0.058 -1.793839,0.12809 -2.695443,0.21135 -0.708343,0.0654 -1.420456,0.14571 -2.132686,0.22738 v 29.23956 h 148.78058 z" /></g></g></g></svg>
